<?xml version="1.0" encoding="UTF-8"?>
<svg id="Layer_2" data-name="Layer 2" xmlns="http://www.w3.org/2000/svg" viewBox="0 0 193.45 43.53">
  <defs>
    <style>
      .cls-1 {
        fill: #fff;
      }
    </style>
  </defs>
  <g id="Layer_1-2" data-name="Layer 1">
    <g>
      <path class="cls-1" d="m31.25,10.23c-1.19.39-3.54,1.29-3.54,1.29,0,0-.74.42-.74,1.35v12.52c.01,2.19,5.55,2.16,5.53-.03v-14.13s-.06-1.38-1.25-1Z"/>
      <path class="cls-1" d="m21.72,10.23c-1.19.39-3.54,1.29-3.54,1.29,0,0-.74.42-.74,1.35v12.52c.01,2.19,5.55,2.16,5.53-.03v-14.13s-.06-1.38-1.25-1Z"/>
      <path class="cls-1" d="m90.38,10.23c-1.19.39-3.54,1.29-3.54,1.29,0,0-.74.42-.74,1.35s0,12.52,0,12.52c.01,2.19,5.55,2.16,5.53-.03v-14.13s-.06-1.38-1.25-1Z"/>
      <path class="cls-1" d="m64.45,1.35s-2.35-.9-3.54-1.29c-1.19-.39-1.25,1-1.25,1v24.29c-.01,2.19,5.52,2.22,5.53.03V2.71c0-.93-.74-1.35-.74-1.35Z"/>
      <path class="cls-1" d="m56,15.46c.01-1-1.1-4.94-2.77-4.8,0,0-6.3-1.36-8.96,5.83h0s0-1.01,0-1.01c0,0,0-.01,0-.02h0c.01-1-1.1-4.94-2.77-4.8,0,0-6.3-1.36-8.96,5.83h0v.9s1.77-4.21,3.57-4.15c2.63.09,2.63,4.26,2.63,4.26h.01v7.89c.01,2.19,5.55,2.16,5.53-.03v-7.97s1.77-4.21,3.57-4.15c2.63.09,2.63,4.26,2.63,4.26h.01v7.89c.01,2.19,5.55,2.16,5.53-.03v-9.88s0-.01,0-.02h0Z"/>
      <path class="cls-1" d="m133.81,10.66l-2.77.53s-3.04.51-4.86,2.21v-2.18s-.06-1.38-1.25-1c-1.19.39-3.54,1.29-3.54,1.29,0,0-.74.42-.74,1.35v12.52c.01,2.19,5.55,2.16,5.53-.03v-11.17c.54-.55,1.28-.98,2.24-.95,1.96.07,2.46,2.4,2.58,3.59.1.36.37.48.77.42,2.61-.99,4.39-2.4,4.79-4.51.01-1-1.07-2.21-2.75-2.07Z"/>
      <path class="cls-1" d="m14.51,24.74c-7.39,1.71-8.58-3.86-8.58-3.86,0,0-1.36-6.95,3.64-8.1,5.49-1.27,7.82,3.6,7.82,3.6v-1.29s-1.22-4.16-5.37-4.53C4.66,10.35-.4,12.84.02,18.24.02,18.24,0,26.02,6.29,27.61c4.78,1.85,8.12-.11,11.12-3.36v-1.58c-.14.65-.74,1.58-2.89,2.08Z"/>
      <path class="cls-1" d="m17.4,21.96v-5.58s0,5.55,0,5.55c0,0,0,.01,0,.03Z"/>
      <path class="cls-1" d="m17.4,21.96v.71c.08-.35.02-.62,0-.71Z"/>
      <path class="cls-1" d="m168.71,10.23c-1.19.39-3.54,1.29-3.54,1.29,0,0-.74.42-.74,1.35v12.52c.01,2.19,5.55,2.16,5.53-.03v-14.13s-.06-1.38-1.25-1Z"/>
      <path class="cls-1" d="m159.18,10.23c-1.19.39-3.54,1.29-3.54,1.29,0,0-.74.42-.74,1.35v12.52c.01,2.19,5.55,2.16,5.53-.03v-14.13s-.06-1.38-1.25-1Z"/>
      <path class="cls-1" d="m193.45,15.46h0c.01-1-1.1-4.94-2.77-4.8,0,0-6.3-1.36-8.96,5.83h0s0-1.01,0-1.01c0,0,0-.01,0-.02h0c.01-1-1.1-4.94-2.77-4.8,0,0-6.3-1.36-8.96,5.83h0v.9s1.77-4.21,3.57-4.15c2.63.09,2.63,4.26,2.63,4.26h.01v7.89c.01,2.19,5.55,2.16,5.53-.03v-7.97s1.77-4.21,3.57-4.15c2.63.09,2.63,4.26,2.63,4.26h.01v7.89c.01,2.19,5.55,2.16,5.53-.03v-9.88s0-.01,0-.02Z"/>
      <path class="cls-1" d="m154.86,21.96v.71c.08-.35.02-.62,0-.71Z"/>
      <path class="cls-1" d="m151.97,24.74c-7.39,1.71-8.58-3.86-8.58-3.86,0,0-1.36-6.95,3.64-8.1,5.49-1.27,7.82,3.6,7.82,3.6v-1.29s-1.22-4.16-5.37-4.53c-7.36-.21-12.42,2.28-11.99,7.69,0,0-.02,7.77,6.26,9.36,4.78,1.85,8.12-.11,11.12-3.36v-1.58c-.14.65-.74,1.58-2.89,2.08Z"/>
      <path class="cls-1" d="m154.86,21.96v-5.58s0,5.55,0,5.55c0,0,0,.01,0,.03Z"/>
      <path class="cls-1" d="m76.34,11.26c-4.78-1.85-8.12.11-11.12,3.36v1.58c.14-.65.74-1.58,2.89-2.08,7.39-1.71,8.58,3.86,8.58,3.86,0,0,1.36,6.95-3.64,8.1-5.49,1.27-7.82-3.6-7.82-3.6v1.29s1.22,4.16,5.37,4.53c7.36.21,12.42-2.28,11.99-7.69,0,0,.02-7.77-6.26-9.36Z"/>
      <path class="cls-1" d="m65.23,16.91v-.71c-.08.35-.02.62,0,.71Z"/>
      <path class="cls-1" d="m65.23,16.91v5.58s0-5.55,0-5.55c0,0,0-.01,0-.03Z"/>
      <path class="cls-1" d="m115.94,9.47s-3.47,1.59-4.1,1.86c-.63.27-.48.97-.48.97v.77c-.82-1.12-2.17-2.32-4.32-2.51-7.36-.21-12.42,2.28-11.99,7.69,0,0-.02,7.77,6.26,9.36,4.22,1.63,7.32.29,10.05-2.28v9s0,.09.01.14c-.01,2.48-.28,8-2.43,8.34-8.1-.29-5.75-10.26-5.75-10.26.78-1.88-.78-2.08-.78-2.08l-6.47-.63s-1.45.08-1.22,1.61c1.88,14.44,12.25,11.93,15.65,11.93,5.16,0,6.24-5.09,6.46-7.22.05-.17.06-.31.06-.31V10.52c-.26-1.56-.95-1.05-.95-1.05Zm-6.41,15.27c-7.39,1.71-8.58-3.86-8.58-3.86,0,0-1.36-6.95,3.64-8.1,3.41-.79,5.6.79,6.77,2.1v9.15c-.43.27-1.01.52-1.83.71Z"/>
    </g>
  </g>
</svg>