<svg xmlns="http://www.w3.org/2000/svg" viewBox="0 0 45 45.01"><defs><style>.cls-1{fill:#0762c8;}</style></defs><g id="Layer_2" data-name="Layer 2"><g id="_1_-_Moodboard" data-name="1 - Moodboard"><path class="cls-1" d="M22.83,11.58a5.57,5.57,0,0,0,.37.68c.12.23.26.46.39.68s.43.69.65,1,.45.67.7,1,.48.64.74,1l.78.9c.28.29.55.59.83.87s.75.72,1.14,1.06.62.54.93.79.56.44.85.65a23.55,23.55,0,0,0,3.84,2.36c-.4.2-.81.41-1.21.64h0c-.4.23-.81.47-1.2.72s-.79.53-1.19.8l0,0-1.15.88a24.29,24.29,0,0,0-3.65,3.66s0,0,0,0a28.56,28.56,0,0,1,2.51,5.08,20.12,20.12,0,0,1,6.26-6.23l0,0,.67-.4a4.49,4.49,0,0,1,.42-.24c.23-.13.46-.24.7-.36s.78-.38,1.18-.55l.65-.25.81-.28.73-.23A20.56,20.56,0,0,1,44.94,25H45V20A20,20,0,0,1,25,0H20A24.72,24.72,0,0,0,22.83,11.58ZM10.64,16.91h0l-.05,0A19.76,19.76,0,0,1,.06,20H0V25A20,20,0,0,1,20,45H25v-.29A24.64,24.64,0,0,0,22.5,34.06a23.88,23.88,0,0,0-1.9-3.24c-.17-.25-.35-.51-.54-.75s-.48-.64-.74-.95l-.78-.9c-.28-.29-.55-.59-.83-.87s-.58-.55-.87-.83-.66-.57-1-.86-.64-.51-1-.74l-.64-.46a.38.38,0,0,0-.13-.09l-.81-.54c-.24-.15-.48-.3-.73-.43A17,17,0,0,0,11,22.51a24.48,24.48,0,0,0,4.77-3.05l0,0a25,25,0,0,0,3.64-3.64,29.82,29.82,0,0,1-2.53-5.13A20.15,20.15,0,0,1,10.64,16.91Z"/></g></g></svg>