<svg xmlns="http://www.w3.org/2000/svg" width="45" height="30.79" viewBox="0 0 45 30.79"><defs><style>.cls-1{fill:#2c4be5;}</style></defs><g id="Layer_2" data-name="Layer 2"><g id="Layer_1-2" data-name="Layer 1"><path class="cls-1" d="M23,5.77a16.16,16.16,0,0,1,4.88.54l3-5.19A24.13,24.13,0,0,0,23,0,28.12,28.12,0,0,0,2.15,9.17C.67,10.78,1.08,10,0,11.94l5.23,2.55h0A22.45,22.45,0,0,1,23,5.77Z"/><path class="cls-1" d="M39.77,16.3h0A22.45,22.45,0,0,1,22,25a14.12,14.12,0,0,1-4.69-.5l-3,5.2A22.94,22.94,0,0,0,22,30.79a28.12,28.12,0,0,0,20.82-9.17c1.48-1.62,1.07-.85,2.15-2.78Z"/><path class="cls-1" d="M29.61,15.79c0-.14,0-.28,0-.44h0a8.48,8.48,0,0,0-.06-.89,6.67,6.67,0,0,0-13.21,0,8.48,8.48,0,0,0-.06.89h0c0,.16,0,.3,0,.44h0c0,.14,0,.27,0,.4a6.49,6.49,0,0,0,.2,1.6l.32.12a6.73,6.73,0,0,0,2.42,3,6.66,6.66,0,0,0,9.87-3h0l.31-.12a6.49,6.49,0,0,0,.2-1.6c0-.13,0-.26,0-.4Z"/></g></g></svg>