<?xml version="1.0" encoding="utf-8"?>
<!-- Generator: Adobe Illustrator 22.1.0, SVG Export Plug-In . SVG Version: 6.00 Build 0)  -->
<svg version="1.1" id="Layer_1" xmlns="http://www.w3.org/2000/svg" xmlns:xlink="http://www.w3.org/1999/xlink" x="0px" y="0px"
	 viewBox="0 0 400 400" style="enable-background:new 0 0 400 400;" xml:space="preserve">
<style type="text/css">
	.st0{fill:#001FFF;}
	.st1{fill:#FFFFFF;}
</style>
<rect class="st0" width="400" height="400"/>
<title>logo-ambigram</title>
<g id="Layer_1-2">
	<path class="st1" d="M202.4,148.5c11.9,0,23.8,1.8,35.2,5.3l10-29.1c-14.7-4.7-30-7-45.4-7c-42.2,0-82.6,17.8-111,49
		c-4.9,4-8.8,9.1-11.5,14.8l27.9,13.6l0,0C130.3,165.8,165.3,148.6,202.4,148.5z"/>
	<path class="st1" d="M292.2,204.8L292.2,204.8c-22.7,29.4-57.8,46.6-94.9,46.5c-11.9,0-23.8-1.8-35.1-5.3l-10,29.2
		c14.7,4.7,30,7,45.4,7c42.4,0.1,82.8-17.7,111.3-49c4.9-4.2,8.8-9.3,11.4-15.1L292.2,204.8z"/>
	<path class="st1" d="M237.9,202.1c0-0.8,0-1.5,0-2.3l0,0c0-1.6,0-3.3,0-4.8c-2.7-19.5-20.7-33.1-40.2-30.4
		c-15.8,2.2-28.2,14.6-30.4,30.4c0,1.5,0,3.2,0,4.8l0,0c0,0.8,0,1.6,0,2.3l0,0c0,0.7,0,1.4,0,2.1c0,2.9,0.4,5.8,1.1,8.6l1.7,0.7
		c2.7,6.4,7.2,11.8,12.9,15.7c16.2,11.1,38.3,7,49.5-9.2c1.4-2,2.6-4.2,3.5-6.5l0,0l1.7-0.7c0.7-2.8,1.1-5.7,1.1-8.6
		c0-0.7,0-1.4,0-2.1H237.9z"/>
</g>
</svg>
