<svg width="728" height="572" viewBox="0 0 728 572" fill="none" xmlns="http://www.w3.org/2000/svg">
<path d="M573.477 12.7618C576.955 12.6062 580.435 13.0104 583.797 13.9604L590.129 2.43592C584.743 0.669813 579.116 -0.146058 573.477 0.0214114C565.205 0.0162031 557.023 1.8275 549.455 5.33939C541.887 8.85127 535.099 13.9864 529.525 20.4163C526.416 23.9952 527.263 22.2999 525 26.5809L536.037 32.2319C540.453 26.1982 546.123 21.307 552.612 17.9324C559.101 14.5577 566.238 12.7891 573.477 12.7618Z" fill="#262626"/>
<path d="M609.028 36.1704C604.596 42.1995 598.91 47.0801 592.406 50.4374C585.901 53.7947 578.752 55.5395 571.507 55.5378C568.168 55.7559 564.817 55.3855 561.594 54.4419L555.245 66.0007C560.505 67.7532 566.009 68.5523 571.523 68.3638C579.793 68.367 587.973 66.5565 595.541 63.0478C603.108 59.5392 609.897 54.4095 615.475 47.9861C618.584 44.39 617.721 46.1024 620 41.8214L609.028 36.1704Z" fill="#262626"/>
<path d="M572.516 48.8594C580.23 48.8594 586.483 42.2813 586.483 34.1669C586.483 26.0525 580.23 19.4744 572.516 19.4744C564.803 19.4744 558.55 26.0525 558.55 34.1669C558.55 42.2813 564.803 48.8594 572.516 48.8594Z" fill="#262626"/>
<path d="M702.43 292.285C712.864 291.819 723.305 293.031 733.391 295.881L752.388 261.308C736.23 256.009 719.349 253.562 702.43 254.064C677.615 254.049 653.07 259.483 630.365 270.018C607.66 280.554 587.296 295.959 570.576 315.249C561.249 325.986 563.788 320.9 557 333.743L590.11 350.696C603.359 332.595 620.368 317.921 639.835 307.797C659.303 297.673 680.714 292.367 702.43 292.285Z" fill="#262626"/>
<path d="M809.085 362.511C795.789 380.599 778.73 395.24 759.217 405.312C739.704 415.384 718.256 420.619 696.521 420.613C686.503 421.268 676.451 420.157 666.781 417.326L647.735 452.002C663.514 457.26 680.027 459.657 696.57 459.091C721.38 459.101 745.919 453.669 768.622 443.143C791.324 432.618 811.692 417.228 828.424 397.958C837.751 387.17 835.163 392.307 842 379.464L809.085 362.511Z" fill="#262626"/>
<path d="M699.549 400.578C722.69 400.578 741.449 380.844 741.449 356.501C741.449 332.157 722.69 312.423 699.549 312.423C676.408 312.423 657.649 332.157 657.649 356.501C657.649 380.844 676.408 400.578 699.549 400.578Z" fill="#262626"/>
<path d="M346.953 152.524C353.91 152.212 360.87 153.021 367.594 154.921L380.259 131.872C369.487 128.34 358.233 126.708 346.953 127.043C330.41 127.032 314.046 130.655 298.91 137.679C283.774 144.703 270.198 154.973 259.051 167.833C252.832 174.99 254.525 171.6 250 180.162L272.073 191.464C280.906 179.396 292.245 169.614 305.223 162.865C318.202 156.115 332.476 152.578 346.953 152.524Z" fill="#262626"/>
<path d="M418.057 199.341C409.193 211.399 397.82 221.16 384.811 227.875C371.803 234.589 357.504 238.079 343.014 238.076C336.335 238.512 329.634 237.771 323.187 235.884L310.49 259.001C321.009 262.506 332.018 264.105 343.047 263.728C359.586 263.734 375.946 260.113 391.081 253.096C406.216 246.078 419.794 235.819 430.949 222.972C437.168 215.78 435.442 219.205 440 210.643L418.057 199.341Z" fill="#262626"/>
<path d="M345.033 224.719C360.46 224.719 372.966 211.563 372.966 195.334C372.966 179.105 360.46 165.949 345.033 165.949C329.605 165.949 317.099 179.105 317.099 195.334C317.099 211.563 329.605 224.719 345.033 224.719Z" fill="#262626"/>
<mask id="mask0_407_70" style="mask-type:alpha" maskUnits="userSpaceOnUse" x="0" y="398" width="479" height="174">
<rect y="398" width="479" height="174" fill="#C4C4C4"/>
</mask>
<g mask="url(#mask0_407_70)">
<path d="M221.507 471.091C235.419 470.468 249.34 472.086 262.789 475.889L288.118 429.752C266.573 422.682 244.065 419.415 221.507 420.086C188.42 420.065 155.693 427.316 125.42 441.376C95.1471 455.435 67.9952 475.993 45.7014 501.735C33.2648 516.063 36.6507 509.276 27.6 526.414L71.7467 549.038C89.4117 524.882 112.09 505.301 138.047 491.791C164.004 478.281 192.552 471.2 221.507 471.091Z" fill="#262626"/>
<path d="M363.714 564.805C345.985 588.942 323.239 608.481 297.222 621.922C271.205 635.363 242.608 642.348 213.628 642.341C200.27 643.214 186.868 641.731 173.974 637.953L148.58 684.228C169.618 691.244 191.636 694.443 213.693 693.689C246.773 693.701 279.492 686.453 309.762 672.407C340.033 658.36 367.189 637.824 389.499 612.108C401.935 597.712 398.484 604.567 407.6 587.428L363.714 564.805Z" fill="#262626"/>
<path d="M217.665 615.604C248.52 615.604 273.532 589.27 273.532 556.784C273.532 524.299 248.52 497.964 217.665 497.964C186.811 497.964 161.798 524.299 161.798 556.784C161.798 589.27 186.811 615.604 217.665 615.604Z" fill="#262626"/>
</g>
</svg>
