<svg width="104" height="104" viewBox="0 0 104 104" fill="none" xmlns="http://www.w3.org/2000/svg">
<circle cx="52" cy="52" r="52" fill="#07C82E"/>
<path d="M74.0873 30.064C68.4874 24.4641 60.7515 21 52.2058 21C35.1165 21 21.2602 34.8542 21.2602 51.9456C21.2602 57.633 22.7945 62.9603 25.4696 67.5402L25.3905 67.3944L21 83.4283L37.4023 79.1252C41.672 81.4964 46.7661 82.8912 52.1871 82.8912H52.1996C69.2889 82.8849 83.1389 69.0286 83.1389 51.9393C83.1389 43.3978 79.679 35.6661 74.0853 30.0661L74.0873 30.064ZM52.1996 77.6638H52.1892C47.3615 77.6638 42.842 76.3315 38.9845 74.0145L39.101 74.079L38.1622 73.5232L28.4299 76.0775L31.0258 66.5867L30.4138 65.6145C27.9469 61.7383 26.4813 57.0147 26.4813 51.9477C26.4813 37.7458 37.9956 26.2315 52.1975 26.2315C66.3994 26.2315 77.9136 37.7458 77.9136 51.9477C77.9136 66.1495 66.4035 77.6638 52.1996 77.6638ZM66.3057 58.4053C65.5333 58.0181 61.732 56.1508 61.0242 55.8905C60.3143 55.6324 59.798 55.5054 59.2818 56.2798C58.7696 57.0522 57.2874 58.7925 56.8357 59.3088C56.386 59.8272 55.9322 59.8896 55.1598 59.5045C52.7658 58.5344 50.709 57.2416 48.9208 55.6491L48.9416 55.6678C47.2782 54.1273 45.8522 52.364 44.701 50.4196L44.6427 50.3114C44.1931 49.5391 44.5948 49.1206 44.98 48.7355C45.3276 48.3899 45.7544 47.832 46.1395 47.3823C46.4435 47.0097 46.7037 46.5829 46.9014 46.1249L46.9139 46.0896C47.0035 45.9084 47.0555 45.6982 47.0555 45.4733C47.0555 45.2006 46.9785 44.9467 46.8452 44.7302L46.8494 44.7364C46.6537 44.3492 45.109 40.5437 44.4658 38.9949C43.8371 37.4877 43.198 37.6938 42.7254 37.6688C42.2757 37.648 41.7595 37.6438 41.2432 37.6438C40.4209 37.6646 39.6902 38.0352 39.1864 38.6077L39.1843 38.6118C37.5147 40.196 36.478 42.4298 36.478 44.905C36.478 44.9591 36.478 45.0154 36.4801 45.0695V45.0612C36.7528 48.1151 37.8978 50.8568 39.659 53.0906L39.634 53.0593C42.9731 58.0119 47.424 61.9735 52.6471 64.6423L52.8428 64.7318C53.9836 65.2481 55.4451 65.7998 56.9398 66.2724L57.25 66.3577C58.1701 66.6492 59.2297 66.8178 60.3289 66.8178C60.9597 66.8178 61.58 66.7616 62.1796 66.6554L62.1151 66.6637C64.3405 66.1995 66.187 64.8568 67.3133 63.0227L67.332 62.9873C67.6755 62.2254 67.8753 61.3365 67.8753 60.4018C67.8753 60.0166 67.842 59.6398 67.7775 59.2734L67.7837 59.313C67.5922 58.9903 67.0759 58.7988 66.3015 58.4095L66.3057 58.4053Z" fill="white"/>
</svg>
