<svg xmlns="http://www.w3.org/2000/svg" viewBox="0 0 121.32 122.7"><defs><style>.cls-1{fill:#fff;}</style></defs><g id="Layer_2" data-name="Layer 2"><g id="_1_-_Moodboard" data-name="1 - Moodboard"><path class="cls-1" d="M68.13,0l1.33.25L70.71,6.3h.09l3.35-5.19,1.32.24L74.13,8.6l-1-.2,1-5.23H74L70.89,8,70,7.82,68.87,2.2H68.8l-1,5.23-1-.19Z"/><path class="cls-1" d="M76,9.21l-1.12-.38,4.9-6.1L81,3.15,81.1,11,80,10.58V4.22l0,0Zm1.12-2.66,3.62,1.24-.31.89L76.82,7.43Z"/><path class="cls-1" d="M81.88,11.35l3.23-6.61L87.47,5.9a3,3,0,0,1,1.14.89,1.86,1.86,0,0,1,.4,1.1,2.43,2.43,0,0,1-.27,1.2A2.51,2.51,0,0,1,88,10a1.92,1.92,0,0,1-1.11.34,3.22,3.22,0,0,1-1.4-.37l-1.78-.88.42-.85,1.69.83a2.12,2.12,0,0,0,.86.24,1,1,0,0,0,.64-.18,1.48,1.48,0,0,0,.46-.57,1.45,1.45,0,0,0,.17-.71,1.1,1.1,0,0,0-.24-.64,2.07,2.07,0,0,0-.73-.54l-1.25-.62-2.82,5.75ZM86.6,10l.17,3.78-1.14-.55-.14-3.77Z"/><path class="cls-1" d="M95.32,13.38l-.93-.62a1.74,1.74,0,0,0,.14-.66,1.87,1.87,0,0,0-.1-.62,1.85,1.85,0,0,0-.32-.56,2.67,2.67,0,0,0-.5-.44,2,2,0,0,0-1.13-.36,2.09,2.09,0,0,0-1.17.35,3.55,3.55,0,0,0-1.08,1.1A3.75,3.75,0,0,0,89.64,13a2.24,2.24,0,0,0,.15,1.22,2.12,2.12,0,0,0,.77.89,2.4,2.4,0,0,0,.61.28,2,2,0,0,0,.63.08A1.79,1.79,0,0,0,93,14.93l.93.62a3.13,3.13,0,0,1-.83.64,2.64,2.64,0,0,1-1,.29,2.88,2.88,0,0,1-1-.08,3.47,3.47,0,0,1-1-.46,3.21,3.21,0,0,1-1.17-1.32,3.14,3.14,0,0,1-.27-1.73A4.45,4.45,0,0,1,89.31,11a4.52,4.52,0,0,1,1.48-1.45,3.18,3.18,0,0,1,1.7-.44,3.14,3.14,0,0,1,1.66.56,3.49,3.49,0,0,1,.83.74,3,3,0,0,1,.49.91,2.71,2.71,0,0,1,.13,1A2.93,2.93,0,0,1,95.32,13.38Z"/><path class="cls-1" d="M93.89,18.59,93,17.82,99.81,14l1,.84L98,22.13l-.89-.77,2.36-5.92,0,0Zm2-2.05L98.81,19l-.61.71-2.89-2.5Z"/><path class="cls-1" d="M106.46,33,113,29.49l1.27,2.38a3,3,0,0,1,.38,1.26,1.81,1.81,0,0,1-.24,1,1.92,1.92,0,0,1-.75.69,1.59,1.59,0,0,1-.76.22,1.34,1.34,0,0,1-.66-.16,2,2,0,0,1-.53-.42l-.07,0a1.4,1.4,0,0,1,.13.74,1.64,1.64,0,0,1-.26.8,2,2,0,0,1-.75.66,2,2,0,0,1-1,.25,1.91,1.91,0,0,1-1-.39,3.36,3.36,0,0,1-.89-1.11Zm1.36.53.76,1.41a1.73,1.73,0,0,0,.81.87,1,1,0,0,0,.85-.07,1.22,1.22,0,0,0,.48-.45,1.35,1.35,0,0,0,.17-.66,1.59,1.59,0,0,0-.21-.76l-.78-1.45ZM110.67,32l.7,1.31a1.44,1.44,0,0,0,.44.53,1.17,1.17,0,0,0,.58.23,1,1,0,0,0,.63-.14,1,1,0,0,0,.52-.64,1.36,1.36,0,0,0-.19-1l-.71-1.33Z"/><path class="cls-1" d="M109.4,38.64,116.26,36l.95,2.44a3,3,0,0,1,.24,1.43,1.88,1.88,0,0,1-.45,1.09,2.68,2.68,0,0,1-2.22.86,1.91,1.91,0,0,1-1-.5,3.21,3.21,0,0,1-.78-1.22l-.72-1.85.89-.35.68,1.76a2,2,0,0,0,.47.76.91.91,0,0,0,.59.3,1.43,1.43,0,0,0,.72-.11,1.47,1.47,0,0,0,.62-.41,1,1,0,0,0,.25-.63,2.1,2.1,0,0,0-.17-.89l-.51-1.3-6,2.33Zm4.42,2.18-2.44,2.9-.46-1.18,2.45-2.86Z"/><path class="cls-1" d="M111.79,45.15,111.5,44l7.78.77.31,1.24-6.48,4.37-.29-1.15,5.33-3.49,0,0Zm2.84-.51.93,3.7-.9.23-.94-3.7Z"/><path class="cls-1" d="M121.22,56.27l-7.31.83-.12-1,4.94-4.33v-.07l-5.36.61-.13-1.1,7.31-.83.12,1-4.94,4.33v.07l5.37-.62Z"/><path class="cls-1" d="M113.92,60.86l0-2.38,7.36.14,0,2.46a3.7,3.7,0,0,1-.48,1.85,2.88,2.88,0,0,1-1.28,1.16,4.31,4.31,0,0,1-2,.38,4.37,4.37,0,0,1-2-.46,3,3,0,0,1-1.25-1.23A3.84,3.84,0,0,1,113.92,60.86Zm1-1.25,0,1.21a2.72,2.72,0,0,0,.29,1.4,1.91,1.91,0,0,0,.9.85,3.56,3.56,0,0,0,1.48.31,3.49,3.49,0,0,0,1.47-.25,1.88,1.88,0,0,0,.93-.8A2.58,2.58,0,0,0,120.3,61l0-1.28Z"/><path class="cls-1" d="M120.85,67.51l-7.31-.81.12-1.1,7.31.81Z"/><path class="cls-1" d="M119.43,75.45,112.22,74l.21-1,6-2.57v-.07l-5.28-1.09.22-1.09,7.21,1.49-.21,1-6,2.58v.07l5.29,1.08Z"/><path class="cls-1" d="M114.93,81.67a2.76,2.76,0,0,0,.65-.07,1.86,1.86,0,0,0,.56-.24,1.75,1.75,0,0,0,.44-.42,2.22,2.22,0,0,0,.4-1.77,2.21,2.21,0,0,0-.62-1,3.55,3.55,0,0,0-1.33-.78,3.44,3.44,0,0,0-1.52-.23,2.13,2.13,0,0,0-1.15.44,2.07,2.07,0,0,0-.68,1,2.15,2.15,0,0,0-.13,1.07,1.84,1.84,0,0,0,.42.89,2.14,2.14,0,0,0,.92.58l-.15.25.7-2,.87.31-1,2.72-.79-.28a3.1,3.1,0,0,1-1.38-.91,2.66,2.66,0,0,1-.63-1.37,3.57,3.57,0,0,1,1.2-3.11,3.17,3.17,0,0,1,1.62-.67,5.09,5.09,0,0,1,3.44,1,3.5,3.5,0,0,1,.9,1,3.16,3.16,0,0,1,.35,1.24,3.26,3.26,0,0,1-.19,1.33,3.38,3.38,0,0,1-.54,1,3.24,3.24,0,0,1-.78.7,2.93,2.93,0,0,1-.94.37,2.85,2.85,0,0,1-1,0Z"/><path class="cls-1" d="M102.56,93.22,108.14,98l-3,3.5-.73-.62,2.28-2.66L105,96.77l-2.12,2.48-.72-.62,2.12-2.48-1.71-1.46-2.31,2.69-.72-.63Z"/><path class="cls-1" d="M99.42,104.35a1.08,1.08,0,0,0,.89.26,1.81,1.81,0,0,0,1-.51,2,2,0,0,0,.48-.64,1.3,1.3,0,0,0,.11-.63,1,1,0,0,0-.25-.53.82.82,0,0,0-.4-.25,1,1,0,0,0-.45,0,2.79,2.79,0,0,0-.47.14l-.42.21-.65.35a5.52,5.52,0,0,1-.69.32,3.45,3.45,0,0,1-.77.18,1.75,1.75,0,0,1-.78-.09,1.66,1.66,0,0,1-.72-.49,1.88,1.88,0,0,1-.52-1,2.18,2.18,0,0,1,.16-1.19,3.46,3.46,0,0,1,.89-1.21A3.69,3.69,0,0,1,98,98.45a2.18,2.18,0,0,1,1.2-.1,2.13,2.13,0,0,1,1.06.59l-.82.76a1,1,0,0,0-.64-.31,1.29,1.29,0,0,0-.69.11,2.35,2.35,0,0,0-.67.44,2.29,2.29,0,0,0-.51.68,1.38,1.38,0,0,0-.14.7,1,1,0,0,0,.27.6.81.81,0,0,0,.5.27,1.29,1.29,0,0,0,.6-.09,4.89,4.89,0,0,0,.68-.3l.8-.42a3.37,3.37,0,0,1,1.51-.44,1.61,1.61,0,0,1,1.22.56,1.84,1.84,0,0,1,.5,1,2.19,2.19,0,0,1-.18,1.17,3.53,3.53,0,0,1-1.94,1.81,2.17,2.17,0,0,1-1.15.08,1.8,1.8,0,0,1-1-.53Z"/><path class="cls-1" d="M98.05,106.85l.56.77L94,111l-.57-.77,1.86-1.35-3.77-5.18.9-.65,3.76,5.17Z"/><path class="cls-1" d="M87.24,110.24l-3.21-2,1.1-.62,3.18,2Zm1.55-4.67L92.38,112l-2.29,1.28a3,3,0,0,1-1.38.44,1.93,1.93,0,0,1-1.14-.3,2.59,2.59,0,0,1-.83-.9,2.43,2.43,0,0,1-.33-1.18,1.92,1.92,0,0,1,.35-1.11,3.27,3.27,0,0,1,1.1-.94l1.73-1,.47.84-1.64.92a2.07,2.07,0,0,0-.7.56,1.09,1.09,0,0,0-.21.64,1.37,1.37,0,0,0,.21.69,1.47,1.47,0,0,0,.49.55,1.07,1.07,0,0,0,.67.17,2.25,2.25,0,0,0,.85-.29L91,111.7l-3.13-5.59Z"/><path class="cls-1" d="M82.71,108.81l1.09-.45.32,7.81-1.18.49-5.23-5.82,1.09-.44,4.2,4.79,0,0Zm.9,2.74L80.07,113l-.35-.86,3.54-1.45Z"/><path class="cls-1" d="M79.79,116.86l.27.92-5.48,1.56-.26-.92,2.21-.63-1.76-6.15,1.06-.31,1.76,6.16Z"/><path class="cls-1" d="M71.52,112.46l1.18,7.26-4.55.75-.15-1,3.46-.56-.37-2.21-3.21.52-.16-.94,3.22-.52-.36-2.23-3.5.58-.15-1ZM71,120.75l-.56,1.77-1.12.18.83-1.81Z"/><path class="cls-1" d="M60.94,118.59a2.57,2.57,0,0,0,.3.57,1.76,1.76,0,0,0,.43.43,1.6,1.6,0,0,0,.56.26,2.09,2.09,0,0,0,.67.07,1.93,1.93,0,0,0,1.11-.36,2.08,2.08,0,0,0,.75-1,3.55,3.55,0,0,0,.24-1.52,3.6,3.6,0,0,0-.35-1.5,2.19,2.19,0,0,0-.84-.91,2.06,2.06,0,0,0-1.16-.27,2.14,2.14,0,0,0-1,.28,1.76,1.76,0,0,0-.66.72,2.12,2.12,0,0,0-.21,1.06l-.29,0,2.11-.08,0,.91-2.89.12,0-.84a3.22,3.22,0,0,1,.33-1.62,2.6,2.6,0,0,1,1-1.09,3.59,3.59,0,0,1,3.34,0A3.15,3.15,0,0,1,65.6,115a4.5,4.5,0,0,1,.5,2,4.69,4.69,0,0,1-.19,1.59,3.33,3.33,0,0,1-.64,1.21,3,3,0,0,1-1,.8,3.5,3.5,0,0,1-1.31.31,3.41,3.41,0,0,1-1.12-.14,3,3,0,0,1-.93-.46,2.84,2.84,0,0,1-1.1-1.71Z"/><path class="cls-1" d="M56.83,120.76l.39-7.35,1.11.06-.4,7.35Z"/><path class="cls-1" d="M55.14,113.28l1.16.17-3.66,6.9-1.27-.18-1.58-7.65,1.17.16,1.2,6.26h.06Zm-.61,2.83-3.78-.55.13-.92,3.79.54Z"/><path class="cls-1" d="M32.41,113.9l3.37-6.53,1,.51-3.37,6.53Z"/><path class="cls-1" d="M32.46,105.45l2,1.28-3.95,6.21-2.07-1.32a3.76,3.76,0,0,1-1.33-1.37,2.93,2.93,0,0,1-.33-1.7,4.89,4.89,0,0,1,2.12-3.33,3,3,0,0,1,1.7-.42A3.9,3.9,0,0,1,32.46,105.45ZM33,107l-1-.65a2.79,2.79,0,0,0-1.34-.49,2,2,0,0,0-1.2.33,3.44,3.44,0,0,0-1,1.1,3.53,3.53,0,0,0-.56,1.39,2,2,0,0,0,.2,1.21,2.61,2.61,0,0,0,1,1l1.07.68Z"/><path class="cls-1" d="M28.58,102.84l-4.67,5.68-3.57-2.93.61-.74,2.71,2.22,1.42-1.73-2.52-2.07.61-.73,2.51,2.07,1.44-1.74-2.74-2.25.6-.74Z"/><path class="cls-1" d="M14.62,99.8,20,94.74l.7.74-1.34,6.43.05,0,3.91-3.71.76.81-5.33,5.06-.71-.75,1.35-6.43-.05-.05-3.92,3.72Z"/><path class="cls-1" d="M14.14,97.72l-.77.57L10,93.69l.77-.57L12.14,95,17.3,91.2l.66.9-5.17,3.77Z"/><path class="cls-1" d="M8.57,91.27l6.28-3.83.58,1L9.14,92.21Z"/><path class="cls-1" d="M13,84.1l1.05,2.13-6.6,3.24-1.09-2.2A3.86,3.86,0,0,1,6,85.41a3,3,0,0,1,.61-1.63,4.39,4.39,0,0,1,1.58-1.24,4.39,4.39,0,0,1,2-.49,3,3,0,0,1,1.67.52A3.93,3.93,0,0,1,13,84.1Zm-.31,1.56-.53-1.08a2.82,2.82,0,0,0-.9-1.12,2,2,0,0,0-1.2-.34,3.65,3.65,0,0,0-1.45.4,3.63,3.63,0,0,0-1.2.9A2,2,0,0,0,7,85.55a2.7,2.7,0,0,0,.31,1.35l.57,1.15Z"/><path class="cls-1" d="M11,79.57l.38,1.12-7.81-.11-.42-1.22,6.1-4.89.38,1.11-5,3.93,0,0Zm-2.79.75L6.94,76.71l.88-.3L9.07,80Z"/><path class="cls-1" d="M8.56,71.33,9,73.66,1.82,75.12l-.49-2.41a3.77,3.77,0,0,1,.06-1.9,3,3,0,0,1,1-1.42,4.48,4.48,0,0,1,1.85-.8,4.41,4.41,0,0,1,2,0,3,3,0,0,1,1.48.94A3.77,3.77,0,0,1,8.56,71.33Zm-.7,1.44-.24-1.19A2.84,2.84,0,0,0,7,70.27,2,2,0,0,0,6,69.64a3.63,3.63,0,0,0-1.5,0,3.61,3.61,0,0,0-1.39.56,2,2,0,0,0-.74,1,2.75,2.75,0,0,0,0,1.38l.26,1.25Z"/><path class="cls-1" d="M7.75,66.7l-7.34.58-.36-4.6,1-.07.27,3.49,2.23-.18-.25-3.25,1-.07.25,3.25,2.25-.18-.28-3.53,1-.08Z"/><path class="cls-1" d="M.11,57l6.14-1.51v-.09L.47,52.79l.11-1.2,7.09,3.29-.11,1.27L0,58.14Z"/><path class="cls-1" d="M1.1,49l7.24,1.29-.19,1.1L.9,50.07Z"/><path class="cls-1" d="M4.38,43.54a1.07,1.07,0,0,0-.89.26,1.85,1.85,0,0,0-.54.94,2,2,0,0,0-.07.79,1.26,1.26,0,0,0,.25.6,1,1,0,0,0,.49.32.83.83,0,0,0,.47,0,1,1,0,0,0,.39-.23,2.3,2.3,0,0,0,.32-.37c.09-.13.18-.27.25-.39l.36-.65a7,7,0,0,1,.42-.64,2.65,2.65,0,0,1,.55-.56,1.8,1.8,0,0,1,.71-.34,1.85,1.85,0,0,1,.87,0,2,2,0,0,1,1,.6A2.25,2.25,0,0,1,9.45,45a3.78,3.78,0,0,1-.11,1.5,3.56,3.56,0,0,1-.63,1.31,2.22,2.22,0,0,1-1,.72,2.14,2.14,0,0,1-1.21.07l.29-1.08a1.13,1.13,0,0,0,.71-.08A1.36,1.36,0,0,0,8.07,47a2.6,2.6,0,0,0,.4-1.58,1.39,1.39,0,0,0-.26-.66.93.93,0,0,0-.55-.37.76.76,0,0,0-.56,0,1.28,1.28,0,0,0-.46.39,4.59,4.59,0,0,0-.42.63l-.45.77a3.37,3.37,0,0,1-1,1.17,1.61,1.61,0,0,1-1.33.18,1.91,1.91,0,0,1-1-.62,2.34,2.34,0,0,1-.47-1.09A3.13,3.13,0,0,1,2,44.47a3.26,3.26,0,0,1,.59-1.21,2.36,2.36,0,0,1,.93-.69,1.9,1.9,0,0,1,1.11-.06Z"/><path class="cls-1" d="M5.26,35.6l.42-1,4.47,1.83a2.51,2.51,0,0,1,1.61,2.16,3.37,3.37,0,0,1-.27,1.55,3.46,3.46,0,0,1-.9,1.29A2.5,2.5,0,0,1,9.34,42a2.54,2.54,0,0,1-1.4-.18L3.46,40l.42-1,4.39,1.8a1.72,1.72,0,0,0,.91.13,1.56,1.56,0,0,0,.8-.35,1.94,1.94,0,0,0,.57-.8,2,2,0,0,0,.16-1,1.53,1.53,0,0,0-.32-.81,1.87,1.87,0,0,0-.74-.54Z"/><path class="cls-1" d="M13.41,35.59l-.58,1-5.06-6,.64-1.11,7.69,1.37-.58,1-6.26-1.2,0,.05ZM11,34l1.91-3.31.81.46-1.91,3.32Z"/><path class="cls-1" d="M16.63,30.24l-5.91-4.38.66-.89,5.14,3.81,2-2.68.77.57Z"/></g></g></svg>