<svg width="30" height="31" viewBox="0 0 30 31" fill="none" xmlns="http://www.w3.org/2000/svg">
<path d="M15 7.29524C13.4767 7.29524 11.9876 7.74697 10.7211 8.59326C9.45448 9.43956 8.46729 10.6424 7.88435 12.0498C7.30141 13.4572 7.14889 15.0058 7.44607 16.4998C7.74324 17.9938 8.47678 19.3662 9.55393 20.4434C10.6311 21.5203 12.0034 22.2539 13.4974 22.5511C14.9915 22.8483 16.54 22.6957 17.9474 22.1128C19.3548 21.5299 20.5576 20.5428 21.4039 19.2763C22.2503 18.0096 22.7019 16.5205 22.7019 14.9972C22.7044 13.985 22.5069 12.9824 22.1207 12.0469C21.7345 11.1113 21.1674 10.2613 20.4517 9.54558C19.7359 8.82988 18.8859 8.26266 17.9504 7.87647C17.0147 7.49031 16.0121 7.29278 15 7.29524ZM15 20.0128C14.0079 20.0128 13.0382 19.7186 12.2134 19.1675C11.3887 18.6165 10.7458 17.8332 10.3662 16.9166C9.98653 16.0001 9.88721 14.9917 10.0807 14.0186C10.2743 13.0458 10.752 12.152 11.4533 11.4505C12.1548 10.7491 13.0486 10.2714 14.0215 10.0779C14.9945 9.88439 16.0029 9.98371 16.9195 10.3633C17.836 10.743 18.6193 11.3859 19.1703 12.2106C19.7215 13.0354 20.0156 14.0051 20.0156 14.9972C20.0156 16.3273 19.4872 17.6032 18.5466 18.5438C17.6061 19.4844 16.3302 20.0128 15 20.0128ZM24.8247 6.97589C24.8247 7.34744 24.7146 7.71064 24.5081 8.01954C24.3017 8.32846 24.0083 8.56925 23.6651 8.71142C23.3218 8.85361 22.9441 8.8908 22.5796 8.81833C22.2152 8.74584 21.8806 8.56693 21.6178 8.30421C21.3552 8.0415 21.1762 7.70679 21.1037 7.34239C21.0312 6.97798 21.0684 6.60028 21.2106 6.25702C21.3528 5.91377 21.5936 5.62039 21.9024 5.41397C22.2115 5.20754 22.5746 5.09737 22.9461 5.09737C23.4443 5.09737 23.9222 5.29529 24.2744 5.64759C24.6269 5.99987 24.8247 6.47769 24.8247 6.97589ZM29.9155 8.85441C29.9701 6.51909 29.0991 4.25692 27.4922 2.56136C25.8056 0.933978 23.5424 0.0421865 21.1991 0.0817107C18.757 -0.0310007 11.2429 -0.0310007 8.80088 0.0817107C6.46627 0.0311596 4.2056 0.901705 2.50783 2.50501C0.901015 4.20056 0.0299061 6.46274 0.0845335 8.79806C-0.0281779 11.2401 -0.0281779 18.7542 0.0845335 21.1963C0.0299061 23.5317 0.901015 25.7938 2.50783 27.4893C4.2056 29.0927 6.46627 29.9632 8.80088 29.9126C11.2805 30.0629 18.7195 30.0629 21.1991 29.9126C23.5345 29.9673 25.7966 29.0962 27.4922 27.4893C29.0991 25.7938 29.9701 23.5317 29.9155 21.1963C30.0282 18.7542 30.0282 11.2401 29.9155 8.79806V8.85441ZM26.722 23.8826C26.4669 24.5288 26.082 25.1155 25.5907 25.6067C25.0995 26.0979 24.5128 26.4828 23.8666 26.7379C20.9504 27.3276 17.9692 27.5297 15 27.3391C12.0372 27.5299 9.06202 27.3278 6.15216 26.7379C5.50608 26.4828 4.91925 26.0979 4.42809 25.6067C3.93692 25.1155 3.55187 24.5288 3.29681 23.8826C2.50783 21.8913 2.6769 17.195 2.6769 15.016C2.6769 12.8369 2.50783 8.12179 3.29681 6.14934C3.54468 5.49687 3.92698 4.90382 4.41889 4.40866C4.9108 3.91352 5.50133 3.52734 6.15216 3.2752C9.06202 2.68531 12.0372 2.48318 15 2.67407C17.9692 2.4835 20.9504 2.68563 23.8666 3.2752C24.5128 3.53027 25.0995 3.91531 25.5907 4.40648C26.082 4.89764 26.4669 5.48448 26.722 6.13056C27.511 8.12179 27.3231 12.8181 27.3231 14.9972C27.3231 17.1763 27.511 21.8913 26.722 23.8638V23.8826Z" fill="#0762C8"/>
</svg>
