<svg width="53" height="50" viewBox="0 0 53 50" fill="none" xmlns="http://www.w3.org/2000/svg">
<path d="M44.551 25.7903L44.0808 30.1613L47.9049 30.5726L48.3751 26.2015L44.551 25.7903ZM29.0715 46.1538H23.4926V50H29.0715V46.1538ZM8.48333 30.1613L8.01318 25.7903L4.1891 26.2015L4.65923 30.5726L8.48333 30.1613ZM19.654 23.2033L24.2426 14.9762L20.8834 13.1028L16.295 21.3297L19.654 23.2033ZM28.3215 14.9762L32.91 23.2033L36.2692 21.3297L31.6808 13.1028L28.3215 14.9762ZM32.91 23.2033C33.3249 23.9469 33.7067 24.6364 34.0767 25.1636C34.4577 25.7059 34.9772 26.3049 35.7731 26.6554L37.3231 23.1354C37.4664 23.1982 37.4421 23.2631 37.2244 22.9533C36.9959 22.628 36.7249 22.1469 36.2692 21.3297L32.91 23.2033ZM38.9518 21.7021C38.2885 22.3628 37.8949 22.7515 37.5851 23.0021C37.29 23.2408 37.2836 23.1723 37.4374 23.151L37.9641 26.961C38.8251 26.8421 39.489 26.409 40.0044 25.9921C40.5051 25.5869 41.0621 25.0287 41.6662 24.4269L38.9518 21.7021ZM35.7731 26.6554C36.461 26.9582 37.2197 27.0638 37.9641 26.961L37.4374 23.151C37.3982 23.1564 37.3587 23.151 37.3231 23.1354L35.7731 26.6554ZM10.8979 24.4269C11.502 25.0287 12.059 25.5869 12.5598 25.9921C13.0752 26.409 13.7391 26.8421 14.5999 26.961L15.1267 23.151C15.2806 23.1723 15.2741 23.2408 14.979 23.0021C14.6693 22.7515 14.2757 22.3628 13.6123 21.7021L10.8979 24.4269ZM16.295 21.3297C15.8393 22.1469 15.5682 22.628 15.3397 22.9533C15.1222 23.2631 15.0978 23.1982 15.2409 23.1354L16.7909 26.6554C17.5868 26.3049 18.1065 25.7059 18.4874 25.1636C18.8575 24.6367 19.2392 23.9469 19.654 23.2033L16.295 21.3297ZM14.5999 26.961C15.3443 27.0638 16.103 26.9582 16.7909 26.6554L15.2409 23.1354C15.2054 23.151 15.1658 23.1564 15.1267 23.151L14.5999 26.961ZM23.4926 46.1538C19.8057 46.1538 17.2236 46.1503 15.2527 45.8979C13.3356 45.6526 12.2526 45.1985 11.4417 44.4726L8.87659 47.3385C10.4916 48.7841 12.4394 49.4154 14.7646 49.7131C17.0361 50.0036 19.9077 50 23.4926 50V46.1538ZM4.65923 30.5726C5.03913 34.1044 5.34056 37.5638 5.85441 40.3692C6.11359 41.7844 6.44046 43.1177 6.89315 44.2749C7.34203 45.4226 7.96128 46.5192 8.87659 47.3385L11.4417 44.4726C11.1441 44.2062 10.8053 43.718 10.475 42.8738C10.1486 42.0395 9.87533 40.9741 9.63764 39.6764C9.15767 37.0559 8.8781 33.8315 8.48333 30.1613L4.65923 30.5726ZM44.0808 30.1613C43.6859 33.8315 43.4064 37.0559 42.9264 39.6764C42.6887 40.9741 42.4154 42.0395 42.089 42.8738C41.759 43.718 41.42 44.2062 41.1223 44.4726L43.6874 47.3385C44.6028 46.5192 45.2221 45.4226 45.671 44.2749C46.1236 43.1177 46.4505 41.7844 46.7097 40.3692C47.2236 37.5638 47.5249 34.1044 47.9049 30.5726L44.0808 30.1613ZM29.0715 50C32.6564 50 35.528 50.0036 37.7995 49.7131C40.1246 49.4154 42.0726 48.7841 43.6874 47.3385L41.1223 44.4726C40.3115 45.1985 39.2285 45.6526 37.3113 45.8979C35.3405 46.1503 32.7585 46.1538 29.0715 46.1538V50ZM23.0769 7.05128C23.0769 5.28113 24.5118 3.84615 26.2821 3.84615V0C22.3877 0 19.2308 3.15697 19.2308 7.05128H23.0769ZM26.2821 3.84615C28.0523 3.84615 29.4872 5.28113 29.4872 7.05128H33.3333C33.3333 3.15697 30.1764 0 26.2821 0V3.84615ZM48.718 17.3077C48.718 18.3698 47.8569 19.2308 46.7949 19.2308V23.0769C49.981 23.0769 52.5641 20.4938 52.5641 17.3077H48.718ZM44.8718 17.3077C44.8718 16.2456 45.7328 15.3846 46.7949 15.3846V11.5385C43.6087 11.5385 41.0256 14.1214 41.0256 17.3077H44.8718ZM46.7949 15.3846C47.8569 15.3846 48.718 16.2456 48.718 17.3077H52.5641C52.5641 14.1214 49.981 11.5385 46.7949 11.5385V15.3846ZM5.76923 19.2308C4.70715 19.2308 3.84615 18.3698 3.84615 17.3077H0C0 20.4938 2.58297 23.0769 5.76923 23.0769V19.2308ZM3.84615 17.3077C3.84615 16.2456 4.70715 15.3846 5.76923 15.3846V11.5385C2.58297 11.5385 0 14.1214 0 17.3077H3.84615ZM5.76923 15.3846C6.83131 15.3846 7.69231 16.2456 7.69231 17.3077H11.5385C11.5385 14.1214 8.95549 11.5385 5.76923 11.5385V15.3846ZM46.7949 19.2308C46.7872 19.2308 46.7795 19.2307 46.7718 19.2306L46.7272 23.0764C46.7497 23.0767 46.7723 23.0769 46.7949 23.0769V19.2308ZM48.3751 26.2015C48.499 25.048 48.6077 24.0405 48.6672 23.2C48.7256 22.3767 48.7477 21.5869 48.6554 20.8982L44.8433 21.409C44.881 21.6905 44.8854 22.1559 44.8308 22.9282C44.7772 23.6833 44.6777 24.6118 44.551 25.7903L48.3751 26.2015ZM46.7718 19.2306C46.2003 19.224 45.6895 18.9699 45.3385 18.5636L42.4279 21.0779C43.4692 22.2833 45.0082 23.0567 46.7272 23.0764L46.7718 19.2306ZM45.3385 18.5636C45.0464 18.2256 44.8718 17.7895 44.8718 17.3077H41.0256C41.0256 18.7473 41.5554 20.0679 42.4279 21.0779L45.3385 18.5636ZM41.6662 24.4269C43.4033 22.6967 44.298 21.8246 44.8933 21.4572L42.8731 18.1844C41.7964 18.849 40.5051 20.1546 38.9518 21.7021L41.6662 24.4269ZM7.69231 17.3077C7.69231 17.7895 7.51764 18.2256 7.22562 18.5636L10.1361 21.0779C11.0087 20.0679 11.5385 18.7473 11.5385 17.3077H7.69231ZM13.6123 21.7021C12.0589 20.1546 10.7676 18.849 9.69092 18.1844L7.67077 21.4572C8.26608 21.8246 9.16085 22.6967 10.8979 24.4269L13.6123 21.7021ZM7.22562 18.5636C6.87462 18.9699 6.3639 19.224 5.79241 19.2306L5.8369 23.0764C7.5558 23.0567 9.0949 22.2833 10.1361 21.0779L7.22562 18.5636ZM5.79241 19.2306C5.78467 19.2307 5.77695 19.2308 5.76923 19.2308V23.0769C5.79182 23.0769 5.81439 23.0767 5.8369 23.0764L5.79241 19.2306ZM8.01318 25.7903C7.88644 24.6118 7.78685 23.6833 7.73336 22.9282C7.67864 22.1559 7.68297 21.6905 7.72069 21.409L3.90859 20.8982C3.81633 21.5869 3.83849 22.3767 3.89682 23.2C3.95636 24.0405 4.065 25.048 4.1891 26.2015L8.01318 25.7903ZM29.4872 7.05128C29.4872 8.29497 28.7792 9.37664 27.7354 9.90915L29.4833 13.3352C31.7644 12.1714 33.3333 9.79623 33.3333 7.05128H29.4872ZM27.7354 9.90915C27.3013 10.1306 26.8092 10.2564 26.2821 10.2564V14.1026C27.4308 14.1026 28.5205 13.8264 29.4833 13.3352L27.7354 9.90915ZM31.6808 13.1028C31.1518 12.1544 30.6764 11.3012 30.2403 10.6031L26.9785 12.6413C27.3528 13.2403 27.7764 13.9987 28.3215 14.9762L31.6808 13.1028ZM26.2821 10.2564C25.7549 10.2564 25.2628 10.1306 24.8287 9.90915L23.0808 13.3352C24.0436 13.8264 25.1333 14.1026 26.2821 14.1026V10.2564ZM24.8287 9.90915C23.7849 9.37664 23.0769 8.29497 23.0769 7.05128H19.2308C19.2308 9.79623 20.7996 12.1714 23.0808 13.3352L24.8287 9.90915ZM24.2426 14.9762C24.7877 13.9987 25.2113 13.2403 25.5856 12.6413L22.3238 10.6031C21.8877 11.3012 21.4123 12.1544 20.8834 13.1028L24.2426 14.9762Z" fill="#C3993C"/>
<path d="M8.3335 39.1026H44.2309Z" fill="#C3993C"/>
<path d="M8.3335 39.1026H44.2309" stroke="#C3993C" stroke-width="3.84615" stroke-linecap="round"/>
</svg>
