<svg width="78" height="50" viewBox="0 0 78 50" fill="none" xmlns="http://www.w3.org/2000/svg">
<rect x="2" y="2" width="73.5" height="46" rx="4.25" stroke="#C3993C" stroke-width="4"/>
<path d="M20.22 33.5L25.26 18.6H29.38L34.42 33.5H31.04L30.04 30.46H24.58L23.58 33.5H20.22ZM25.44 27.76H29.18L26.9 20.72H27.74L25.44 27.76ZM40.4978 33.74C39.4311 33.74 38.4778 33.4867 37.6378 32.98C36.7978 32.4733 36.1311 31.7867 35.6378 30.92C35.1578 30.0533 34.9178 29.0933 34.9178 28.04C34.9178 26.9733 35.1645 26.0133 35.6578 25.16C36.1511 24.2933 36.8178 23.6067 37.6578 23.1C38.4978 22.5933 39.4378 22.34 40.4778 22.34C41.2778 22.34 41.9845 22.4933 42.5978 22.8C43.2245 23.0933 43.7178 23.5133 44.0778 24.06L43.6178 24.66V18.36H46.6178V33.5H43.8178V31.5L44.0978 32.12C43.7245 32.6533 43.2178 33.06 42.5778 33.34C41.9378 33.6067 41.2445 33.74 40.4978 33.74ZM40.8578 31.04C41.4045 31.04 41.8845 30.9133 42.2978 30.66C42.7111 30.4067 43.0311 30.0533 43.2578 29.6C43.4978 29.1467 43.6178 28.6267 43.6178 28.04C43.6178 27.4533 43.4978 26.9333 43.2578 26.48C43.0311 26.0267 42.7111 25.6733 42.2978 25.42C41.8845 25.1667 41.4045 25.04 40.8578 25.04C40.3111 25.04 39.8178 25.1733 39.3778 25.44C38.9511 25.6933 38.6178 26.0467 38.3778 26.5C38.1378 26.94 38.0178 27.4533 38.0178 28.04C38.0178 28.6267 38.1378 29.1467 38.3778 29.6C38.6178 30.0533 38.9511 30.4067 39.3778 30.66C39.8178 30.9133 40.3111 31.04 40.8578 31.04ZM53.0948 33.74C51.8948 33.74 50.8482 33.46 49.9548 32.9C49.0748 32.3267 48.4748 31.56 48.1548 30.6L50.3548 29.56C50.6348 30.1467 51.0148 30.6067 51.4948 30.94C51.9748 31.2733 52.5082 31.44 53.0948 31.44C53.5215 31.44 53.8482 31.3533 54.0748 31.18C54.3015 31.0067 54.4148 30.7667 54.4148 30.46C54.4148 30.3 54.3748 30.1667 54.2948 30.06C54.2148 29.94 54.0948 29.8333 53.9348 29.74C53.7748 29.6467 53.5748 29.5667 53.3348 29.5L51.4748 28.98C50.5815 28.7267 49.8948 28.32 49.4148 27.76C48.9348 27.1867 48.6948 26.5133 48.6948 25.74C48.6948 25.06 48.8682 24.4667 49.2148 23.96C49.5615 23.4533 50.0482 23.06 50.6748 22.78C51.3015 22.4867 52.0215 22.34 52.8348 22.34C53.9015 22.34 54.8348 22.5933 55.6348 23.1C56.4482 23.5933 57.0215 24.2933 57.3548 25.2L55.1348 26.24C54.9748 25.7867 54.6815 25.4267 54.2548 25.16C53.8415 24.88 53.3682 24.74 52.8348 24.74C52.4482 24.74 52.1415 24.82 51.9148 24.98C51.7015 25.14 51.5948 25.36 51.5948 25.64C51.5948 25.7867 51.6348 25.92 51.7148 26.04C51.7948 26.16 51.9215 26.2667 52.0948 26.36C52.2815 26.4533 52.5082 26.54 52.7748 26.62L54.5148 27.14C55.4215 27.4067 56.1148 27.8133 56.5948 28.36C57.0748 28.8933 57.3148 29.5533 57.3148 30.34C57.3148 31.02 57.1348 31.6133 56.7748 32.12C56.4282 32.6267 55.9415 33.0267 55.3148 33.32C54.6882 33.6 53.9482 33.74 53.0948 33.74Z" fill="#C3993C"/>
</svg>
