<svg width="30" height="29" viewBox="0 0 30 29" fill="none" xmlns="http://www.w3.org/2000/svg">
<path fill-rule="evenodd" clip-rule="evenodd" d="M6.81042 28.6755V9.32726H0.380138V28.6755H6.81042V28.6755ZM3.59596 6.68655C5.83762 6.68655 7.23401 5.19958 7.23401 3.34292C7.19162 1.44499 5.83762 0 3.63799 0C1.43801 5.87085e-05 0 1.44505 0 3.34298C0 5.19964 1.39562 6.68661 3.55363 6.68661L3.59596 6.68655ZM10.3693 28.6755C10.3693 28.6755 10.4537 11.1426 10.3693 9.32732H16.8006V12.1332H16.7579C17.6036 10.8129 19.1271 8.87297 22.5959 8.87297C26.8279 8.87297 30 11.6383 30 17.5814V28.6756H23.5698V18.3248C23.5698 15.724 22.6394 13.9492 20.3116 13.9492C18.5355 13.9492 17.4769 15.1457 17.0121 16.3022C16.842 16.7139 16.8006 17.2921 16.8006 17.8704V28.6755H10.3693Z" fill="#0762C8"/>
</svg>
