<svg width="28" height="28" viewBox="0 0 28 28" fill="none" xmlns="http://www.w3.org/2000/svg">
<path d="M14 1.16504C21.0886 1.16504 26.835 6.91143 26.835 14C26.835 21.0886 21.0886 26.835 14 26.835C6.91143 26.835 1.16504 21.0886 1.16504 14C1.16504 6.91143 6.91143 1.16504 14 1.16504ZM20.8242 8.17578C20.3693 7.72082 19.6307 7.72082 19.1758 8.17578L14.5 12.8516L9.82422 8.17578C9.36926 7.72082 8.63074 7.72082 8.17578 8.17578C7.72082 8.63074 7.72082 9.36926 8.17578 9.82422L12.8516 14.5L8.17578 19.1758C7.72082 19.6307 7.72082 20.3693 8.17578 20.8242C8.63074 21.2792 9.36926 21.2792 9.82422 20.8242L14.5 16.1484L19.1758 20.8242C19.6307 21.2792 20.3693 21.2792 20.8242 20.8242C21.2792 20.3693 21.2792 19.6307 20.8242 19.1758L16.1484 14.5L20.8242 9.82422C21.2792 9.36926 21.2792 8.63074 20.8242 8.17578Z" stroke="#8B7D63" stroke-width="2.33" stroke-linecap="round"/>
</svg>
