<svg width="31" height="31" viewBox="0 0 31 31" fill="none" xmlns="http://www.w3.org/2000/svg">
<path d="M26.4009 4.5428C23.7098 1.85172 19.9923 0.187057 15.8856 0.187057C7.67336 0.187057 1.0147 6.84472 1.0147 15.058C1.0147 17.7911 1.75199 20.3511 3.03751 22.552L2.99949 22.482L0.889648 30.1871L8.7718 28.1192C10.8236 29.2587 13.2716 29.929 15.8766 29.929H15.8826C24.0949 29.926 30.7506 23.2673 30.7506 15.055C30.7506 10.9504 29.0879 7.23488 26.3999 4.5438L26.4009 4.5428ZM15.8826 27.417H15.8776C13.5577 27.417 11.3858 26.7767 9.53211 25.6632L9.58813 25.6943L9.13695 25.4272L4.46008 26.6546L5.70758 22.0938L5.41346 21.6266C4.22798 19.7639 3.5237 17.494 3.5237 15.059C3.5237 8.23428 9.05692 2.70106 15.8816 2.70106C22.7064 2.70106 28.2396 8.23428 28.2396 15.059C28.2396 21.8837 22.7084 27.417 15.8826 27.417ZM22.6614 18.1622C22.2902 17.9762 20.4635 17.0788 20.1233 16.9538C19.7822 16.8297 19.5341 16.7687 19.286 17.1408C19.0399 17.512 18.3276 18.3483 18.1105 18.5964C17.8945 18.8455 17.6764 18.8755 17.3052 18.6905C16.1548 18.2243 15.1664 17.603 14.307 16.8377L14.317 16.8467C13.5177 16.1064 12.8324 15.2591 12.2792 14.3247L12.2512 14.2727C12.0351 13.9015 12.2282 13.7005 12.4133 13.5154C12.5803 13.3493 12.7854 13.0812 12.9705 12.8651C13.1165 12.6861 13.2416 12.481 13.3366 12.2609L13.3426 12.2439C13.3856 12.1568 13.4107 12.0558 13.4107 11.9478C13.4107 11.8167 13.3736 11.6947 13.3096 11.5906L13.3116 11.5936C13.2176 11.4075 12.4753 9.57881 12.1662 8.83452C11.864 8.11023 11.5569 8.20927 11.3298 8.19726C11.1137 8.18726 10.8656 8.18526 10.6175 8.18526C10.2224 8.19526 9.87124 8.37333 9.62915 8.64844L9.62815 8.65044C8.82582 9.41175 8.32763 10.4852 8.32763 11.6747C8.32763 11.7007 8.32762 11.7277 8.32862 11.7537V11.7497C8.45968 13.2173 9.0099 14.5348 9.85624 15.6082L9.84423 15.5932C11.4489 17.9732 13.5877 19.8769 16.0977 21.1594L16.1918 21.2025C16.74 21.4506 17.4423 21.7157 18.1606 21.9428L18.3096 21.9838C18.7518 22.1238 19.261 22.2049 19.7892 22.2049C20.0923 22.2049 20.3905 22.1779 20.6786 22.1268L20.6476 22.1308C21.717 21.9077 22.6043 21.2625 23.1456 20.3811L23.1546 20.3641C23.3196 19.998 23.4157 19.5708 23.4157 19.1216C23.4157 18.9366 23.3997 18.7555 23.3686 18.5794L23.3716 18.5984C23.2796 18.4434 23.0315 18.3513 22.6594 18.1642L22.6614 18.1622Z" fill="#0762C8"/>
</svg>
