<?xml version="1.0" encoding="utf-8"?>
<!-- Generator: Adobe Illustrator 22.1.0, SVG Export Plug-In . SVG Version: 6.00 Build 0)  -->
<svg version="1.1" id="Layer_1" xmlns="http://www.w3.org/2000/svg" xmlns:xlink="http://www.w3.org/1999/xlink" x="0px" y="0px"
	 viewBox="0 0 80 54.7" style="enable-background:new 0 0 80 54.7;" xml:space="preserve">
<style type="text/css">
	.st0{fill:#001FFF;}
</style>
<title>logo-ambigram</title>
<g id="Layer_1-2">
	<path class="st0" d="M40.8,10.2c4,0,7.9,0.6,11.7,1.8l3.3-9.7C50.9,0.8,45.9,0,40.7,0c-14,0-27.4,5.9-36.9,16.3
		c-1.6,1.3-2.9,3-3.8,4.9l9.3,4.5l0,0C16.8,16,28.5,10.3,40.8,10.2z"/>
	<path class="st0" d="M70.6,29L70.6,29c-7.6,9.8-19.2,15.5-31.5,15.5c-4,0-7.9-0.6-11.7-1.8l-3.3,9.7c4.9,1.5,10,2.3,15.1,2.3
		c14.1,0,27.5-5.9,37-16.3c1.6-1.4,2.9-3.1,3.8-5L70.6,29z"/>
	<path class="st0" d="M52.6,28.1c0-0.3,0-0.5,0-0.8l0,0c0-0.5,0-1.1,0-1.6c-0.9-6.5-6.9-11-13.4-10.1c-5.2,0.7-9.4,4.9-10.1,10.1
		c0,0.5,0,1.1,0,1.6l0,0c0,0.3,0,0.5,0,0.8l0,0c0,0.2,0,0.5,0,0.7c0,1,0.1,1.9,0.4,2.8l0.6,0.2c0.9,2.1,2.4,3.9,4.3,5.2
		c5.4,3.7,12.7,2.3,16.4-3.1c0.5-0.7,0.9-1.4,1.2-2.2l0,0l0.6-0.2c0.2-0.9,0.4-1.9,0.4-2.8c0-0.2,0-0.5,0-0.7H52.6z"/>
</g>
</svg>
