<svg xmlns="http://www.w3.org/2000/svg" viewBox="0 0 200 31.73"><defs><style>.cls-1{fill:#fff;}.cls-2{fill:#1648d6;}</style></defs><g id="Layer_2" data-name="Layer 2"><g id="_1_-_Moodboard" data-name="1 - Moodboard"><path class="cls-1" d="M0,22.78v-1l.37,0a3.16,3.16,0,0,0,2.05-1.47,15.21,15.21,0,0,0,2-3.64L10.76,1h1.33l7.8,15.64c.14.29.35.72.65,1.31a14.17,14.17,0,0,0,1.06,1.76A7.2,7.2,0,0,0,23,21.24a2.42,2.42,0,0,0,1.78.55l0,1H14.15v-1l.36,0c.54,0,.8-.45.8-1.22a10.12,10.12,0,0,0-1.16-3.82l-.4-.83H6.34l-.3.79a8.45,8.45,0,0,0-.49,1.7,8.07,8.07,0,0,0-.14,1.39,2.74,2.74,0,0,0,.32,1.4,1.17,1.17,0,0,0,.95.59l.43,0V22a1.85,1.85,0,0,1,0,.43v.36Zm13.12-8.23L9.63,7.37,6.87,14.55Z"/><path class="cls-1" d="M25,22.78v-.36a1.52,1.52,0,0,1,0-.47v-.16l.33,0c.64-.06,1.13-.59,1.48-1.57a11.8,11.8,0,0,0,.51-3.77c0-1,0-1.89-.07-2.54a5.77,5.77,0,0,0-.28-1.6,2.45,2.45,0,0,0-.61-1,3.86,3.86,0,0,0-1-.69l-.33-.16v-.1a.45.45,0,0,1,0-.23l6.21-2.46h1V9.93A4.37,4.37,0,0,1,33.1,9a7.1,7.1,0,0,1,1.29-.78,8.49,8.49,0,0,1,1.68-.56,8.29,8.29,0,0,1,2-.22,3.3,3.3,0,0,1,2.32.77,3.89,3.89,0,0,1,1.13,2.12,8.16,8.16,0,0,1,1.15-1,10.55,10.55,0,0,1,1.59-.93,12.36,12.36,0,0,1,1.85-.69A6.72,6.72,0,0,1,48,7.47a3.07,3.07,0,0,1,2.86,1.38,7.27,7.27,0,0,1,.83,3.74v4.05a10.45,10.45,0,0,0,.53,3.62c.35.93.84,1.43,1.46,1.49l.33,0v1H44.47v-1l.4,0c.62,0,1.11-.53,1.46-1.47a10.41,10.41,0,0,0,.53-3.64V13.09a4.7,4.7,0,0,0-.16-1.22,3.51,3.51,0,0,0-.5-1.09,3,3,0,0,0-.77-.78,1.68,1.68,0,0,0-1-.3,2.45,2.45,0,0,0-1.3.45,5.75,5.75,0,0,0-1.46,1.54,3.64,3.64,0,0,1,0,.45v4.5a10.39,10.39,0,0,0,.54,3.64c.35.94.84,1.43,1.46,1.47l.43,0v1H34.87v-1l.17,0c.62-.11,1.08-.62,1.39-1.52a11.4,11.4,0,0,0,.47-3.59V13.09a5.3,5.3,0,0,0-.15-1.23,4.18,4.18,0,0,0-.45-1.15,3.31,3.31,0,0,0-.71-.85,1.5,1.5,0,0,0-1-.33,2.13,2.13,0,0,0-1.15.4,5.1,5.1,0,0,0-1.27,1.33v5.38a10.41,10.41,0,0,0,.53,3.64c.35.94.84,1.43,1.46,1.47l.36,0v1Z"/><path class="cls-1" d="M53,3,59.22.53h1V8.9a3.06,3.06,0,0,1,1.74-1.05,12,12,0,0,1,3.24-.38A5.91,5.91,0,0,1,67.79,8a5.61,5.61,0,0,1,2,1.59A7.48,7.48,0,0,1,71,12.12a11.07,11.07,0,0,1,.45,3.26,7.65,7.65,0,0,1-.61,3.12,6.9,6.9,0,0,1-1.73,2.39,7.69,7.69,0,0,1-2.71,1.53,11.37,11.37,0,0,1-3.58.53,4.85,4.85,0,0,1-1.41-.2c-.44-.13-.85-.27-1.23-.41l-1.13-.42a3.34,3.34,0,0,0-1.11-.2,2.63,2.63,0,0,0-2.1,1.06h-.53V9.33q0-1.56-.06-2.55A6.21,6.21,0,0,0,55,5.16a2.45,2.45,0,0,0-.61-1,3.84,3.84,0,0,0-1-.68L53,3.32a.22.22,0,0,0,0-.1Zm7.21,13.82a7.15,7.15,0,0,0,.72,3.48,2.15,2.15,0,0,0,1.94,1.3,2.7,2.7,0,0,0,2.37-1.33,6.4,6.4,0,0,0,.88-3.59,9.21,9.21,0,0,0-1.26-5.13,3.89,3.89,0,0,0-3.39-1.91c-.77,0-1.19.17-1.26.5Z"/><path class="cls-1" d="M72.4,22.78v-.36a1.52,1.52,0,0,1,0-.47v-.16l.33,0c.64-.06,1.13-.59,1.48-1.57a11.64,11.64,0,0,0,.51-3.74c0-1,0-1.89-.07-2.56a5.85,5.85,0,0,0-.28-1.61,2.45,2.45,0,0,0-.61-1,3.86,3.86,0,0,0-1-.69l-.33-.16v-.1a.45.45,0,0,1,0-.23l6.25-2.46h1v9a10.45,10.45,0,0,0,.53,3.62c.36.93.84,1.43,1.46,1.49l.34,0A.55.55,0,0,0,82,22v.83ZM74.26,2.66A2.63,2.63,0,0,1,75,.71a3,3,0,0,1,3.88,0,2.63,2.63,0,0,1,.72,2,2.61,2.61,0,0,1-.72,1.94A3,3,0,0,1,75,4.6,2.61,2.61,0,0,1,74.26,2.66Z"/><path class="cls-1" d="M85.72,24.08a4.91,4.91,0,0,1-1.88-1.41,3.28,3.28,0,0,1-.68-2.05,3.32,3.32,0,0,1,.54-2,3.84,3.84,0,0,1,1.46-1.22,5.25,5.25,0,0,1-1.91-1.76,4.38,4.38,0,0,1-.68-2.45,4.91,4.91,0,0,1,.54-2.28A5.63,5.63,0,0,1,84.64,9.1,7.49,7.49,0,0,1,87,7.9a10.14,10.14,0,0,1,3-.43,9,9,0,0,1,5,1.3,12.07,12.07,0,0,1,1-1.93,2.37,2.37,0,0,1,1.63-1.13A2.31,2.31,0,0,1,99.39,6a2.54,2.54,0,0,1,.81,1.44,1.09,1.09,0,0,1,0,.72,1.86,1.86,0,0,1-.35.54,1,1,0,0,1-.5.32,1,1,0,0,1-.55,0,5.68,5.68,0,0,1-1-.43,2.11,2.11,0,0,0-1-.27A1.86,1.86,0,0,0,96,8.5a2.63,2.63,0,0,0-.75.5A6,6,0,0,1,97,10.84a4.49,4.49,0,0,1,.64,2.35,4.12,4.12,0,0,1-.59,2.2,5.28,5.28,0,0,1-1.65,1.68A8,8,0,0,1,93,18.15a11,11,0,0,1-3,.38,10.86,10.86,0,0,1-3.25-.46,1.37,1.37,0,0,0-.27.89,1,1,0,0,0,.53.85,3.31,3.31,0,0,0,1.46.38c.6,0,1.16,0,1.67,0h1.24a5.56,5.56,0,0,1,.75,0,11,11,0,0,1,2.62.5,8.16,8.16,0,0,1,2.14,1,5.21,5.21,0,0,1,1.47,1.45A3.65,3.65,0,0,1,98.94,25a4.9,4.9,0,0,1-.71,3A6.61,6.61,0,0,1,96,30.14a11,11,0,0,1-3.25,1.25,16,16,0,0,1-3.81.33,12.16,12.16,0,0,1-2.19-.28,8.79,8.79,0,0,1-2.09-.75,5.15,5.15,0,0,1-1.6-1.25,3,3,0,0,1-.69-1.77,2.92,2.92,0,0,1,.83-2.48A4.89,4.89,0,0,1,85.72,24.08Zm3.59,6.44a8.85,8.85,0,0,0,4.32-.86A2.34,2.34,0,0,0,94.82,27a2,2,0,0,0-1.36-1.62,11.8,11.8,0,0,0-3-.6c-.67,0-1.24-.07-1.73-.07a7.51,7.51,0,0,1-1.53-.16,1.9,1.9,0,0,0-1.16.78,3.33,3.33,0,0,0-.43,1.91,3.09,3.09,0,0,0,.93,2.22,3.52,3.52,0,0,0,1.16.75A4.32,4.32,0,0,0,89.31,30.52ZM90,17.44a2.42,2.42,0,0,0,1.16-.3,3.2,3.2,0,0,0,1-.87,4.63,4.63,0,0,0,.73-1.34,5,5,0,0,0,.28-1.74,5.58,5.58,0,0,0-.28-1.81,5.31,5.31,0,0,0-.73-1.47,3.55,3.55,0,0,0-1-1A2.18,2.18,0,0,0,90,8.6,2,2,0,0,0,88.86,9a3.23,3.23,0,0,0-.91,1,4.94,4.94,0,0,0-.63,1.47,6.55,6.55,0,0,0-.24,1.81,5.9,5.9,0,0,0,.24,1.74A4.26,4.26,0,0,0,88,16.27a2.88,2.88,0,0,0,.91.87A2.15,2.15,0,0,0,90,17.44Z"/><path class="cls-1" d="M99.77,22.78v-.36a2.17,2.17,0,0,1,0-.47v-.16l.34,0c.64-.06,1.13-.59,1.47-1.57a11.5,11.5,0,0,0,.52-3.77c0-1,0-1.89-.07-2.54a6.17,6.17,0,0,0-.28-1.6,2.45,2.45,0,0,0-.61-1,3.86,3.86,0,0,0-1-.69l-.34-.16v-.1a.63.63,0,0,1,0-.23L106,7.64h1v4.85c.16-.38.36-.82.62-1.33a8.83,8.83,0,0,1,.9-1.46,7.26,7.26,0,0,1,1.16-1.25A3,3,0,0,1,111,7.77a2.3,2.3,0,0,1,2.17.45,3.68,3.68,0,0,1,1,2,1.89,1.89,0,0,1-.05,1,2.45,2.45,0,0,1-.41.77,1.73,1.73,0,0,1-.6.46.82.82,0,0,1-.63,0,6.22,6.22,0,0,1-1.28-.6,2.62,2.62,0,0,0-1.35-.36,2.54,2.54,0,0,0-1.31.45,6.24,6.24,0,0,0-1.58,1.71v2.92a10.19,10.19,0,0,0,.54,3.62c.35.93.84,1.43,1.46,1.49l.33,0a.55.55,0,0,0,0,.16v.83Z"/><path class="cls-1" d="M114.72,19a3.18,3.18,0,0,1,.93-2.37,6.42,6.42,0,0,1,2.27-1.43,12.71,12.71,0,0,1,2.82-.73,21.42,21.42,0,0,1,2.61-.25V11.66a5.21,5.21,0,0,0-.33-2c-.22-.51-.52-.76-.9-.76A1.71,1.71,0,0,0,120.48,10a5,5,0,0,0-.28,2.84c-.45.11-.86.2-1.23.26a6.24,6.24,0,0,1-1.13.1,6.46,6.46,0,0,1-1.15-.1c-.39-.06-.83-.15-1.34-.26a3.46,3.46,0,0,1,.35-2.16,4.5,4.5,0,0,1,1.56-1.7,8.41,8.41,0,0,1,2.55-1.08,12.19,12.19,0,0,1,3.41-.31A5.52,5.52,0,0,1,127,9a5,5,0,0,1,1.43,3.77V18.5a4.52,4.52,0,0,0,.26,1.71,1,1,0,0,0,1.06.65,1.84,1.84,0,0,0,.93-.19,1.12,1.12,0,0,0,.5-.51l.53.63A4.61,4.61,0,0,1,130,22.53a7.16,7.16,0,0,1-3.45.65,3.48,3.48,0,0,1-1.78-.43,2.36,2.36,0,0,1-1-1.2,9.93,9.93,0,0,1-2.09,1A7.55,7.55,0,0,1,119,23a4.27,4.27,0,0,1-1.75-.34,4.16,4.16,0,0,1-1.34-.88,3.69,3.69,0,0,1-.87-1.27A4.12,4.12,0,0,1,114.72,19Zm4.84-.76A2.18,2.18,0,0,0,120.3,20a2.54,2.54,0,0,0,3.08.19l0-5.05a5.91,5.91,0,0,0-1.38.16,3.72,3.72,0,0,0-1.21.55,3.09,3.09,0,0,0-.86,1A2.78,2.78,0,0,0,119.56,18.27Z"/><path class="cls-1" d="M132.05,22.78v-.36a1.52,1.52,0,0,1,0-.47v-.16l.33,0c.64-.06,1.13-.59,1.48-1.57a11.8,11.8,0,0,0,.51-3.77c0-1,0-1.89-.07-2.54a5.77,5.77,0,0,0-.28-1.6,2.45,2.45,0,0,0-.61-1,3.86,3.86,0,0,0-1-.69l-.33-.16v-.1a.45.45,0,0,1,0-.23l6.21-2.46h1V9.93a4.37,4.37,0,0,1,.88-.9,7.1,7.1,0,0,1,1.29-.78,8.49,8.49,0,0,1,1.68-.56,8.29,8.29,0,0,1,2-.22,3.28,3.28,0,0,1,2.32.77,3.89,3.89,0,0,1,1.13,2.12,8.16,8.16,0,0,1,1.15-1,10.55,10.55,0,0,1,1.59-.93,12.36,12.36,0,0,1,1.85-.69A6.72,6.72,0,0,1,155,7.47a3.07,3.07,0,0,1,2.86,1.38,7.27,7.27,0,0,1,.83,3.74v4.05a10.45,10.45,0,0,0,.53,3.62c.35.93.84,1.43,1.46,1.49l.33,0v1h-9.53v-1l.4,0c.62,0,1.11-.53,1.46-1.47a10.41,10.41,0,0,0,.53-3.64V13.09a4.7,4.7,0,0,0-.16-1.22,3.51,3.51,0,0,0-.5-1.09,3.14,3.14,0,0,0-.76-.78,1.73,1.73,0,0,0-1-.3,2.45,2.45,0,0,0-1.3.45,5.75,5.75,0,0,0-1.46,1.54,3.75,3.75,0,0,1,0,.45v4.5a10.41,10.41,0,0,0,.53,3.64c.35.94.84,1.43,1.46,1.47l.43,0v1h-9.27v-1l.17,0c.62-.11,1.08-.62,1.39-1.52a11.4,11.4,0,0,0,.47-3.59V13.09a5.3,5.3,0,0,0-.15-1.23,4.18,4.18,0,0,0-.45-1.15,3.31,3.31,0,0,0-.71-.85,1.48,1.48,0,0,0-.95-.33,2.07,2.07,0,0,0-1.14.4,5.12,5.12,0,0,0-1.28,1.33v5.38a10.41,10.41,0,0,0,.53,3.64c.35.94.84,1.43,1.46,1.47l.36,0v1Z"/><path class="cls-2" d="M184.72,8.69a4.09,4.09,0,0,0,.25.46c.08.16.18.32.27.47s.29.47.45.7.31.46.48.67.33.44.51.66l.54.62.57.6c.25.25.52.49.79.73s.42.37.64.54.38.31.59.45a16.58,16.58,0,0,0,2.64,1.63c-.27.14-.55.28-.83.44h0l-.83.5-.81.56h0c-.27.19-.54.4-.8.61a16.61,16.61,0,0,0-2.51,2.52,0,0,0,0,1,0,0,19.27,19.27,0,0,1,1.72,3.5,13.72,13.72,0,0,1,4.32-4.29l0,0,.47-.28.28-.16.49-.25c.26-.14.54-.26.81-.38l.45-.17.56-.2c.17-.05.33-.11.5-.15A14,14,0,0,1,200,18h0V14.48A13.8,13.8,0,0,1,186.23.7h-3.48A17.08,17.08,0,0,0,184.72,8.69Zm-8.4,3.67h0l0,0a13.66,13.66,0,0,1-7.25,2.1h0V18a13.78,13.78,0,0,1,13.77,13.77h3.48v-.2a17.06,17.06,0,0,0-1.74-7.35,18,18,0,0,0-1.31-2.24l-.37-.51c-.17-.22-.33-.44-.52-.66l-.53-.62-.57-.6-.6-.57-.69-.59q-.33-.27-.66-.51l-.44-.32-.09-.06c-.18-.13-.37-.25-.56-.37l-.5-.3a12.14,12.14,0,0,0-1.12-.61,16.38,16.38,0,0,0,3.28-2.11s0,0,0,0a17.52,17.52,0,0,0,2.51-2.51A20,20,0,0,1,180.62,8,14,14,0,0,1,176.32,12.36Z"/></g></g></svg>