<svg xmlns="http://www.w3.org/2000/svg" viewBox="0 0 425.39 66.69"><defs><style>.cls-1{fill:#fff;}.cls-2{fill:#1648d6;}</style></defs><g id="Layer_2" data-name="Layer 2"><g id="_1_-_Moodboard" data-name="1 - Moodboard"><path class="cls-1" d="M119.24,14.39h10l17.8,40h-9.35l-4.2-9.91H114.65l-4.15,9.91h-9.07Zm11.7,23.8-6.83-16.86-6.94,16.86Z"/><path class="cls-1" d="M172.72,36.68c0-3.08-.39-6.84-7.28-6.84-2.69,0-8.07,1.52-8.07,8V54.37h-7.72V24.69h7.72v4.48h.12c2.52-3.19,6.44-5.26,11.7-5.26,3.47,0,8.4.61,10.47,5.49,1.91-2.75,5.83-5.49,12-5.49,4.76,0,11.82,1.68,11.82,10.75V54.37h-7.73V36.68c0-3.08-.39-6.84-7.28-6.84-2.69,0-8.06,1.52-8.06,8V54.37h-7.73Z"/><path class="cls-1" d="M209.79,13.72h7.73V29h.11c2.3-3.59,6.72-5,11.37-5,11.31,0,16.24,8.23,16.24,15.73S240.31,55.49,229,55.49c-6.16,0-10.81-3.42-11.37-5.21h-.11v4.09h-7.73Zm7.39,25.92c0,5,2.75,9.92,10,9.92s10-4.88,10-9.92-2.74-9.8-10-9.8S217.18,34.72,217.18,39.64Z"/><path class="cls-1" d="M250.44,13.72h7.73V20h-7.73Zm0,11h7.73V54.37h-7.73Z"/><path class="cls-1" d="M299.67,24.58V53.36c0,7.06-4.54,13.33-17.64,13.33-9.19,0-16.75-2-17.42-9.69h8.07c.78,3.81,4.42,4.43,9.12,4.43,8.85,0,10.14-4.71,10.14-8.57V49.28h-.17A16.36,16.36,0,0,1,279.68,54c-7.84,0-16.52-4-16.52-15,0-7.62,5-15.12,16.46-15.12,6,0,10.42,1.9,12.21,5h.11V24.58ZM282,48.1c5.88,0,10-3.81,10-9.3,0-7.11-6.66-9-10.64-9-5.77,0-10.08,3.76-10.08,9.07C271.22,43.28,273.85,48.1,282,48.1Z"/><path class="cls-1" d="M306.16,24.69h7.73v5.77H314c2.08-3.36,5.27-6.55,11.2-6.55a17.19,17.19,0,0,1,3.08.28V31.8a14.89,14.89,0,0,0-4.92-.73c-3.92,0-9.47,2.08-9.47,9V54.37h-7.73Z"/><path class="cls-1" d="M364,47.6a1.48,1.48,0,0,0,1.68,1.68,18.26,18.26,0,0,0,2.52-.17v5.43a24.29,24.29,0,0,1-5.49.67c-5,0-5.6-2.69-5.83-3.81-1.51,1.46-5.26,4.09-13.94,4.09-7.73,0-12.1-3.47-12.1-9.29,0-8.18,8.4-8.91,13.33-9.36,11.09-1.06,12.27-1.45,12.27-3.75,0-3.41-3.92-4.25-8.4-4.25-5.1,0-7.84,1.62-8.12,4.92h-7.56C333.44,26,339.2,23.57,348,23.57c15.51,0,16,6.11,16,10Zm-7.73-8c-2.24.95-4.65,1.23-10.14,1.85-5.82.67-7.22,2-7.22,4.47,0,3.92,3.58,4.65,6.21,4.65,4.15,0,11.15-1.57,11.15-8.12Z"/><path class="cls-1" d="M394.59,36.68c0-3.08-.39-6.84-7.28-6.84-2.69,0-8.07,1.52-8.07,8V54.37h-7.72V24.69h7.72v4.48h.12c2.52-3.19,6.44-5.26,11.7-5.26,3.47,0,8.4.61,10.47,5.49,1.91-2.75,5.83-5.49,12-5.49,4.76,0,11.82,1.68,11.82,10.75V54.37h-7.73V36.68c0-3.08-.39-6.84-7.28-6.84-2.69,0-8.06,1.52-8.06,8V54.37h-7.73Z"/><path class="cls-2" d="M33.38,16.93a9.41,9.41,0,0,0,.53,1c.18.34.38.67.58,1,.31.5.62,1,.94,1.48s.67,1,1,1.43.71.93,1.09,1.39.76.89,1.14,1.32.8.85,1.21,1.27,1.1,1.05,1.67,1.55.9.78,1.36,1.15.82.65,1.24,1a34,34,0,0,0,5.62,3.44c-.59.3-1.18.61-1.77.94h0c-.6.34-1.19.69-1.76,1.06s-1.16.77-1.73,1.17c0,0,0,0-.05,0q-.86.62-1.68,1.29a34.13,34.13,0,0,0-5.33,5.35s0,0,0,0a42,42,0,0,1,3.67,7.42,29.3,29.3,0,0,1,9.14-9.1l.07,0c.33-.21.66-.4,1-.59s.4-.24.61-.34.68-.36,1-.54c.56-.28,1.15-.54,1.73-.79l.94-.37,1.2-.42c.36-.12.7-.23,1.07-.32a29.22,29.22,0,0,1,7.81-1.08h.09V29.21A29.24,29.24,0,0,1,36.58,0H29.2A36.11,36.11,0,0,0,33.38,16.93ZM15.56,24.72h0l-.07,0A28.85,28.85,0,0,1,.09,29.21H0V36.6A29.22,29.22,0,0,1,29.2,65.79h7.38v-.42a36.05,36.05,0,0,0-3.69-15.58,35.19,35.19,0,0,0-2.78-4.74c-.25-.37-.51-.74-.78-1.09s-.71-.93-1.09-1.39-.76-.89-1.14-1.32-.8-.85-1.21-1.27l-1.27-1.21c-.48-.43-1-.84-1.47-1.26s-.93-.75-1.4-1.09l-.93-.66a.62.62,0,0,0-.19-.14c-.39-.26-.79-.53-1.19-.78s-.7-.44-1.06-.64c-.77-.48-1.57-.9-2.38-1.3a35.08,35.08,0,0,0,7-4.46s0,0,.07-.06a36.16,36.16,0,0,0,5.32-5.32,43.1,43.1,0,0,1-3.7-7.49A29.36,29.36,0,0,1,15.56,24.72Z"/></g></g></svg>