<svg xmlns="http://www.w3.org/2000/svg" viewBox="0 0 217 27.49"><defs><style>.cls-1{fill:#fff;}.cls-2{fill:#1556c4;}</style></defs><g id="Layer_2" data-name="Layer 2"><g id="Layer_1-2" data-name="Layer 1"><path class="cls-1" d="M66.66,3.62h3.83l8.62,17.83h-3.8l-1.42-3H63.47l-1.38,3H58.28Zm5.8,11.85-3.85-8.1-3.76,8.1Z"/><path class="cls-1" d="M81.56,8h3.37V9.13A8.9,8.9,0,0,1,87.4,8.05a9.75,9.75,0,0,1,2.36-.31,8.27,8.27,0,0,1,2.95.52A6,6,0,0,1,95,9.81a10.75,10.75,0,0,1,1.46-1,8.16,8.16,0,0,1,1.43-.64,8.41,8.41,0,0,1,1.46-.36,11,11,0,0,1,1.53-.11,9.35,9.35,0,0,1,3,.46,6,6,0,0,1,2.3,1.34,5.8,5.8,0,0,1,1.47,2.21,8.39,8.39,0,0,1,.52,3.08v6.62h-3.36V15.38a5.79,5.79,0,0,0-.32-2,4.15,4.15,0,0,0-.88-1.47,3.69,3.69,0,0,0-1.34-.92,4.54,4.54,0,0,0-1.72-.31,5.48,5.48,0,0,0-1,.1,4.75,4.75,0,0,0-1,.3,4.59,4.59,0,0,0-1,.52,3.62,3.62,0,0,0-.78.73v9.1H93.38V15.38a5.8,5.8,0,0,0-.31-2,4.15,4.15,0,0,0-.88-1.47A3.73,3.73,0,0,0,90.84,11a4.68,4.68,0,0,0-1.74-.31,5.81,5.81,0,0,0-1.17.12,5.92,5.92,0,0,0-1.13.34,6.11,6.11,0,0,0-1,.52,5.28,5.28,0,0,0-.85.7v9.07H81.56Z"/><path class="cls-1" d="M112.34,2.52h3.38V9.25a7.28,7.28,0,0,1,1-.58,11,11,0,0,1,1.3-.48,11.17,11.17,0,0,1,1.44-.33,9.68,9.68,0,0,1,4.62.39,7.08,7.08,0,0,1,2.46,1.41,6.49,6.49,0,0,1,1.61,2.19,6.75,6.75,0,0,1,.57,2.81,6.81,6.81,0,0,1-.6,2.9,6.63,6.63,0,0,1-1.67,2.21A7.5,7.5,0,0,1,124,21.19a9.8,9.8,0,0,1-3.17.5,11.64,11.64,0,0,1-1.45-.1,11.85,11.85,0,0,1-1.37-.25,9.28,9.28,0,0,1-1.23-.38,8.12,8.12,0,0,1-1-.48v1h-3.38Zm3.38,14.69a5.46,5.46,0,0,0,1.09.7,7.23,7.23,0,0,0,1.16.47,6.93,6.93,0,0,0,1.2.26,7.88,7.88,0,0,0,1.17.09,6.26,6.26,0,0,0,2.07-.31,4.52,4.52,0,0,0,1.53-.86,3.73,3.73,0,0,0,1-1.29,3.93,3.93,0,0,0,.33-1.61,3.62,3.62,0,0,0-.32-1.53,3.72,3.72,0,0,0-.94-1.26,4.42,4.42,0,0,0-1.47-.86,5.58,5.58,0,0,0-1.93-.31,7.06,7.06,0,0,0-1.37.13,8,8,0,0,0-1.32.37,7.19,7.19,0,0,0-1.18.58,5.39,5.39,0,0,0-1,.77Z"/><path class="cls-1" d="M133.68,6.15a2.85,2.85,0,0,1-.91-.14,2.3,2.3,0,0,1-.69-.39,1.82,1.82,0,0,1-.44-.57,1.65,1.65,0,0,1-.15-.69,1.62,1.62,0,0,1,.59-1.27,2.09,2.09,0,0,1,.69-.38,2.6,2.6,0,0,1,.91-.14,2.65,2.65,0,0,1,.92.14,2.09,2.09,0,0,1,.69.38,1.75,1.75,0,0,1,.44.57,1.63,1.63,0,0,1,.15.7,1.65,1.65,0,0,1-.15.69,2,2,0,0,1-.44.57,2.3,2.3,0,0,1-.69.39A2.91,2.91,0,0,1,133.68,6.15ZM132,8h3.38V21.45H132Z"/><path class="cls-1" d="M141.8,23.73a12,12,0,0,0,1.3.38c.44.1.87.19,1.28.25s.82.11,1.2.14.71,0,1,0a7.53,7.53,0,0,0,2.35-.33,5,5,0,0,0,1.66-.87,3.55,3.55,0,0,0,1-1.27,3.71,3.71,0,0,0,.33-1.54V20a6.87,6.87,0,0,1-1,.57,9.35,9.35,0,0,1-1.27.48,11,11,0,0,1-1.48.33,9.46,9.46,0,0,1-1.61.13,9.09,9.09,0,0,1-3.06-.5,7.25,7.25,0,0,1-2.43-1.39,6.18,6.18,0,0,1-1.6-2.15,6.53,6.53,0,0,1-.58-2.78,6.57,6.57,0,0,1,.6-2.84,6.38,6.38,0,0,1,1.68-2.17,7.51,7.51,0,0,1,2.52-1.39,9.84,9.84,0,0,1,3.17-.5,12.95,12.95,0,0,1,2.83.35,9.28,9.28,0,0,1,1.23.38,8.12,8.12,0,0,1,1,.48V8h3.38V19.91a8.89,8.89,0,0,1-.56,3.25,6.35,6.35,0,0,1-1.64,2.38A7.31,7.31,0,0,1,150.44,27a12.45,12.45,0,0,1-3.67.49c-.49,0-1,0-1.54-.06s-1.06-.1-1.6-.18-1.06-.18-1.59-.29-1-.24-1.5-.38Zm.63-9.13a3.7,3.7,0,0,0,.32,1.52,3.79,3.79,0,0,0,.93,1.25,4.42,4.42,0,0,0,1.46.83,5.83,5.83,0,0,0,1.93.3,7.27,7.27,0,0,0,1.39-.13,8,8,0,0,0,1.32-.37,6.9,6.9,0,0,0,1.19-.58,4.91,4.91,0,0,0,1-.77V12.22a5.69,5.69,0,0,0-1.08-.7,7.33,7.33,0,0,0-1.17-.47,8,8,0,0,0-1.2-.27,9.46,9.46,0,0,0-1.17-.08,6.26,6.26,0,0,0-2.07.31,4.33,4.33,0,0,0-1.53.84,3.64,3.64,0,0,0-1,1.23A3.58,3.58,0,0,0,142.43,14.6Z"/><path class="cls-1" d="M159.15,8h3.38V9.92a14.54,14.54,0,0,1,2.36-1.43,13.35,13.35,0,0,1,2.47-.93l1,3.09a10.52,10.52,0,0,0-3.43.88,6.06,6.06,0,0,0-2.4,1.91v8h-3.38Z"/><path class="cls-1" d="M170.23,17.2a3.62,3.62,0,0,1,1.69-3.14,6.55,6.55,0,0,1,2.1-.89,12.22,12.22,0,0,1,2.94-.31,20.25,20.25,0,0,1,2.62.18,24,24,0,0,1,2.83.56,2.71,2.71,0,0,0-.39-1.18,3,3,0,0,0-.91-.94,5,5,0,0,0-1.42-.61,7.64,7.64,0,0,0-1.88-.22c-.38,0-.79,0-1.25.07s-.93.12-1.42.21-1,.2-1.44.34a9.91,9.91,0,0,0-1.33.49l-1-2.77c.51-.18,1.05-.35,1.63-.5s1.18-.29,1.79-.4,1.21-.19,1.82-.25,1.2-.1,1.77-.1c2.52,0,4.39.65,5.61,1.93s1.84,3.26,1.84,5.91v5.87h-3.38V20.18a12.11,12.11,0,0,1-1.14.58,11.3,11.3,0,0,1-2.92.81,12.56,12.56,0,0,1-1.78.12,9.9,9.9,0,0,1-2.76-.35,6,6,0,0,1-2-.94A4.05,4.05,0,0,1,170.63,19,4,4,0,0,1,170.23,17.2Zm3.56-.11a1.19,1.19,0,0,0,.17.63,1.5,1.5,0,0,0,.55.54,3.32,3.32,0,0,0,1,.37,5.78,5.78,0,0,0,1.42.15,9.39,9.39,0,0,0,3.27-.59,7.1,7.1,0,0,0,1.3-.6,4.87,4.87,0,0,0,1-.71v-.59c-.51-.15-1-.27-1.53-.37s-1-.17-1.45-.23-.89-.1-1.3-.12l-1.07,0a8.57,8.57,0,0,0-1.57.12,3.91,3.91,0,0,0-1,.34,1.3,1.3,0,0,0-.54.49A1.17,1.17,0,0,0,173.79,17.09Z"/><path class="cls-1" d="M190.36,8h3.38V9.13a8.77,8.77,0,0,1,2.47-1.08,9.73,9.73,0,0,1,2.35-.31,8.29,8.29,0,0,1,3,.52,5.9,5.9,0,0,1,2.3,1.55,11.4,11.4,0,0,1,1.46-1,8.25,8.25,0,0,1,1.44-.64,8.41,8.41,0,0,1,1.46-.36,11,11,0,0,1,1.53-.11,9.44,9.44,0,0,1,3,.46A6.13,6.13,0,0,1,215,9.54a6,6,0,0,1,1.47,2.21,8.39,8.39,0,0,1,.52,3.08v6.62h-3.37V15.38a5.8,5.8,0,0,0-.31-2,4.15,4.15,0,0,0-.88-1.47A3.69,3.69,0,0,0,211.1,11a4.58,4.58,0,0,0-1.72-.31,5.48,5.48,0,0,0-1,.1,4.6,4.6,0,0,0-1,.3,4.94,4.94,0,0,0-1,.52,3.81,3.81,0,0,0-.77.73v9.1h-3.37V15.38a5.8,5.8,0,0,0-.31-2,4.15,4.15,0,0,0-.88-1.47,3.77,3.77,0,0,0-1.36-.92,4.68,4.68,0,0,0-1.74-.31,6,6,0,0,0-1.17.12,6.39,6.39,0,0,0-1.13.34,5.66,5.66,0,0,0-1,.52,4.88,4.88,0,0,0-.85.7v9.07h-3.38Z"/><path class="cls-2" d="M20.49,5.15a14.32,14.32,0,0,1,4.36.48L27.52,1a21.44,21.44,0,0,0-7-1A25.13,25.13,0,0,0,1.91,8.18,7.37,7.37,0,0,0,0,10.66l4.66,2.27h0A20,20,0,0,1,20.49,5.15Z"/><path class="cls-2" d="M35.49,14.54h0a20,20,0,0,1-15.84,7.77,12.7,12.7,0,0,1-4.18-.44l-2.68,4.63a20.46,20.46,0,0,0,6.86,1,25.1,25.1,0,0,0,18.58-8.18,7.28,7.28,0,0,0,1.92-2.48Z"/><circle class="cls-2" cx="20.07" cy="13.73" r="5.9"/></g></g></svg>