<svg xmlns="http://www.w3.org/2000/svg" width="200" height="21.74" viewBox="0 0 200 21.74"><defs><style>.cls-1{fill:#fff;}.cls-2{fill:#001fff;}</style></defs><title>logo-ambigram</title><g id="Layer_2" data-name="Layer 2"><g id="Layer_1-2" data-name="Layer 1"><path class="cls-1" d="M68.9,9.78v3a1,1,0,0,0,.14.51.46.46,0,0,0,.43.23,1.13,1.13,0,0,0,.59-.15v2.81a2.61,2.61,0,0,1-1.84.59,3.15,3.15,0,0,1-2.76-1.5,8.42,8.42,0,0,1-2.65,1,15,15,0,0,1-3.71.45q-5.62,0-5.62-4.29a3.54,3.54,0,0,1,.56-2,3.46,3.46,0,0,1,1.55-1.29,8.73,8.73,0,0,1,2.09-.64,14.91,14.91,0,0,1,2.41-.19A12.68,12.68,0,0,1,63,8.71a10.19,10.19,0,0,1,2.22.73,1.93,1.93,0,0,0-1.11-1.58,7.3,7.3,0,0,0-3.73-.7,15.74,15.74,0,0,0-2.88.28,11.75,11.75,0,0,0-2.5.71L53.9,5.4a8.14,8.14,0,0,1,2.87-1,21.52,21.52,0,0,1,3.93-.35q4.23,0,6.21,1.4A4.91,4.91,0,0,1,68.9,9.78Zm-3.82,3.27v-.93c-.15-.28-.71-.5-1.69-.67a18.38,18.38,0,0,0-3.11-.26,6.5,6.5,0,0,0-2,.24,1.58,1.58,0,0,0-.86.48,1.15,1.15,0,0,0-.16.64,1.09,1.09,0,0,0,.65,1.08,4.63,4.63,0,0,0,1.93.31,17.58,17.58,0,0,0,3-.34A9.76,9.76,0,0,0,65.08,13.05Z"/><path class="cls-1" d="M97.15,11.55v5h-4.1v-4.9a7.61,7.61,0,0,0-.54-3.48,2,2,0,0,0-1.89-.92,4.88,4.88,0,0,0-1.93.5,7.52,7.52,0,0,0-1.83,1.11,10.91,10.91,0,0,0-.09,1.44v6.25h-3.9V11.43a6.51,6.51,0,0,0-.59-3.28,2,2,0,0,0-1.84-.91,5.31,5.31,0,0,0-3.83,1.69v7.61H72.53V4.33h3.85v1.5a6,6,0,0,1,4.29-1.78,5.72,5.72,0,0,1,4.88,2.28,7.8,7.8,0,0,1,5.3-2.28A6.17,6.17,0,0,1,95.5,5.77Q97.15,7.5,97.15,11.55Z"/><path class="cls-1" d="M104.63.93V5.72A7.2,7.2,0,0,1,109.78,4a7.35,7.35,0,0,1,2.25.35,7,7,0,0,1,2.06,1.07,5.07,5.07,0,0,1,1.57,2,7.17,7.17,0,0,1,.59,3,6.9,6.9,0,0,1-.58,2.87,5.25,5.25,0,0,1-1.57,2,7,7,0,0,1-2.17,1.13,8.12,8.12,0,0,1-2.53.38,9.75,9.75,0,0,1-4.9-1.2v.93h-3.84V.93Zm7.69,9.55a2.81,2.81,0,0,0-1.11-2.41,4.56,4.56,0,0,0-2.8-.83,5,5,0,0,0-2.9.84,2.61,2.61,0,0,0-1.2,2.27,3,3,0,0,0,1.23,2.44,5,5,0,0,0,5.67.14A2.86,2.86,0,0,0,112.32,10.48Z"/><path class="cls-1" d="M123,.88a1.49,1.49,0,0,1,.6,1.19,1.47,1.47,0,0,1-.6,1.18,2.29,2.29,0,0,1-1.47.49,2.24,2.24,0,0,1-1.44-.49,1.49,1.49,0,0,1-.59-1.18,1.5,1.5,0,0,1,.59-1.19A2.23,2.23,0,0,1,121.55.4,2.28,2.28,0,0,1,123,.88Zm.56,3.45V16.54h-4.06V4.33Z"/><path class="cls-1" d="M142.53,4.31v8.81q0,3.63-2,5.23t-5.93,1.59a19.29,19.29,0,0,1-7.21-1.1l1.29-2.91a13.39,13.39,0,0,0,5.67,1.29,5.91,5.91,0,0,0,3.17-.84,2.49,2.49,0,0,0,1.35-2.16A7.72,7.72,0,0,1,133.45,16a8.09,8.09,0,0,1-2.24-.32,7.2,7.2,0,0,1-2.08-1,4.7,4.7,0,0,1-1.59-1.88,6.24,6.24,0,0,1-.6-2.8,5.89,5.89,0,0,1,.58-2.67,5.07,5.07,0,0,1,1.56-1.88,7.44,7.44,0,0,1,2.19-1.07A8.81,8.81,0,0,1,133.81,4a10,10,0,0,1,4.88,1.12V4.31Zm-7.75,2.62h-.19a4.4,4.4,0,0,0-2.67.78,2.55,2.55,0,0,0-1,2.17A2.51,2.51,0,0,0,132,12.11a4.89,4.89,0,0,0,2.8.75,5.12,5.12,0,0,0,2.9-.77,2.48,2.48,0,0,0,1.17-2.21,2.37,2.37,0,0,0-1.18-2.16A5.77,5.77,0,0,0,134.78,6.93Z"/><path class="cls-1" d="M154.79,4.05V7.83a9,9,0,0,0-1.41.11,8.59,8.59,0,0,0-1.44.38,2.52,2.52,0,0,0-1.23.92,2.61,2.61,0,0,0-.47,1.57v5.73h-4.07V4.33H150V6.5a3.23,3.23,0,0,1,1.68-1.92A7.65,7.65,0,0,1,154.79,4.05Z"/><path class="cls-1" d="M171.75,9.78v3a1,1,0,0,0,.14.51.46.46,0,0,0,.43.23,1.13,1.13,0,0,0,.59-.15v2.81a2.6,2.6,0,0,1-1.83.59,3.17,3.17,0,0,1-2.77-1.5,8.45,8.45,0,0,1-2.64,1,15.16,15.16,0,0,1-3.72.45q-5.62,0-5.62-4.29a3.54,3.54,0,0,1,.56-2,3.46,3.46,0,0,1,1.55-1.29,8.73,8.73,0,0,1,2.09-.64,14.91,14.91,0,0,1,2.41-.19,12.83,12.83,0,0,1,2.9.35,10.26,10.26,0,0,1,2.21.73,1.93,1.93,0,0,0-1.11-1.58,7.26,7.26,0,0,0-3.72-.7,15.76,15.76,0,0,0-2.89.28,11.92,11.92,0,0,0-2.5.71L156.75,5.4a8.22,8.22,0,0,1,2.87-1,21.52,21.52,0,0,1,3.93-.35q4.23,0,6.22,1.4A4.93,4.93,0,0,1,171.75,9.78Zm-3.82,3.27v-.93c-.14-.28-.71-.5-1.69-.67a18.29,18.29,0,0,0-3.11-.26,6.55,6.55,0,0,0-2,.24,1.58,1.58,0,0,0-.86.48,1.15,1.15,0,0,0-.16.64,1.09,1.09,0,0,0,.65,1.08,4.63,4.63,0,0,0,1.93.31,17.58,17.58,0,0,0,3-.34A9.76,9.76,0,0,0,167.93,13.05Z"/><path class="cls-1" d="M200,11.55v5h-4.1v-4.9a7.61,7.61,0,0,0-.54-3.48,2,2,0,0,0-1.89-.92,4.88,4.88,0,0,0-1.93.5,7.52,7.52,0,0,0-1.83,1.11,11,11,0,0,0-.08,1.44v6.25h-3.91V11.43a6.65,6.65,0,0,0-.58-3.28,2.06,2.06,0,0,0-1.85-.91,5.31,5.31,0,0,0-3.83,1.69v7.61h-4.07V4.33h3.84v1.5a6,6,0,0,1,4.29-1.78,5.7,5.7,0,0,1,4.88,2.28,7.81,7.81,0,0,1,5.3-2.28,6.17,6.17,0,0,1,4.65,1.72Q200,7.5,200,11.55Z"/><path class="cls-2" d="M16.22,4.07a15.86,15.86,0,0,1,4.65.7L22.19.92a19.62,19.62,0,0,0-6-.92A19.86,19.86,0,0,0,1.52,6.47,5.7,5.7,0,0,0,0,8.43l3.69,1.8h0A15.9,15.9,0,0,1,16.22,4.07Z"/><path class="cls-2" d="M28.08,11.51h0a15.84,15.84,0,0,1-12.54,6.15,15.47,15.47,0,0,1-4.64-.7L9.58,20.82a19.62,19.62,0,0,0,6,.92,19.84,19.84,0,0,0,14.71-6.48,5.8,5.8,0,0,0,1.51-2Z"/><path class="cls-2" d="M20.91,11.15c0-.1,0-.2,0-.31h0c0-.21,0-.43,0-.63a4.71,4.71,0,0,0-9.33,0c0,.2,0,.42,0,.63h0c0,.11,0,.21,0,.31h0c0,.09,0,.18,0,.28a4.66,4.66,0,0,0,.14,1.13l.23.09a4.79,4.79,0,0,0,1.7,2.08,4.7,4.7,0,0,0,7-2.08h0l.22-.09a4.66,4.66,0,0,0,.14-1.13,2.53,2.53,0,0,0,0-.28Z"/></g></g></svg>