<svg xmlns="http://www.w3.org/2000/svg" viewBox="0 0 992.9 168.21"><defs><style>.cls-1{fill:#fff;}.cls-2{fill:#0000fe;}</style></defs><g id="Layer_2" data-name="Layer 2"><g id="Layer_3" data-name="Layer 3"><path class="cls-1" d="M294.19,126.84a37,37,0,0,1-15.35-3,22.34,22.34,0,0,1-13.64-21.24A23.57,23.57,0,0,1,277.91,81a47.76,47.76,0,0,1,16.43-5.27l27.6-4.5v15.5l-23.72,4q-6,1.1-9,3.88a9.55,9.55,0,0,0-3,7.28,8.22,8.22,0,0,0,3.34,6.9,13.17,13.17,0,0,0,8.29,2.56,22.75,22.75,0,0,0,11.24-2.71,19.35,19.35,0,0,0,7.6-7.52,21.16,21.16,0,0,0,2.71-10.54V68.85a11.47,11.47,0,0,0-4.26-9.07q-4.27-3.63-11.24-3.64a19.75,19.75,0,0,0-11.55,3.49A20.2,20.2,0,0,0,285,68.85l-16.59-8.06a29.46,29.46,0,0,1,7.83-11.55,39.56,39.56,0,0,1,12.64-7.67,43.87,43.87,0,0,1,15.81-2.79A41.91,41.91,0,0,1,323,42.57a29.77,29.77,0,0,1,12.33,10.55,28,28,0,0,1,4.42,15.73V125H320.55V110.56l4.34-.31a34.25,34.25,0,0,1-7.76,9.07,32.94,32.94,0,0,1-10.23,5.58A39.56,39.56,0,0,1,294.19,126.84Z"/><path class="cls-1" d="M354.65,125V40.64h19.07V60.17l-2.17-3.26q2.32-9.13,9.3-13.64a29.72,29.72,0,0,1,16.43-4.49,31.64,31.64,0,0,1,18.3,5.42,24.46,24.46,0,0,1,10.23,14.27l-5.74.46q3.87-10.07,11.63-15.11a34,34,0,0,1,33.87-1,29,29,0,0,1,11.09,11.24,33.63,33.63,0,0,1,4,16.66V125H460.38V75.52a21.19,21.19,0,0,0-2-9.61,15.29,15.29,0,0,0-5.58-6.28,16,16,0,0,0-8.68-2.25,16.2,16.2,0,0,0-8.53,2.25,15,15,0,0,0-5.73,6.28,21.19,21.19,0,0,0-2,9.61V125H407.51V75.52a21.33,21.33,0,0,0-2-9.61,15.2,15.2,0,0,0-5.66-6.28,17.43,17.43,0,0,0-17.13,0A15,15,0,0,0,377,65.91a21.33,21.33,0,0,0-2,9.61V125Z"/><path class="cls-1" d="M540.06,126.84a38.71,38.71,0,0,1-16.82-3.65,29.33,29.33,0,0,1-12.17-10.46l2-4V125H494V7.62h20.31V57.38l-3.1-4.18A29.69,29.69,0,0,1,523,42.57a37.51,37.51,0,0,1,17.21-3.79,40.39,40.39,0,0,1,21.55,5.89A43.69,43.69,0,0,1,577,60.48a44.31,44.31,0,0,1,5.66,22.33,45.31,45.31,0,0,1-5.58,22.32A42,42,0,0,1,561.92,121,41.36,41.36,0,0,1,540.06,126.84Zm-2.32-18.61a23.73,23.73,0,0,0,12.4-3.25,22.49,22.49,0,0,0,8.45-9,27.87,27.87,0,0,0,3-13.17,27.41,27.41,0,0,0-3-13.1,23,23,0,0,0-20.85-12.33,22.41,22.41,0,0,0-20.39,12.33,28,28,0,0,0-3,13.1,27.87,27.87,0,0,0,3,13.17,22.48,22.48,0,0,0,20.39,12.25Z"/><path class="cls-1" d="M594.32,31.18V9.48h20.31v21.7Zm0,93.79V40.64h20.31V125Z"/><path class="cls-1" d="M670.44,159.08a48.38,48.38,0,0,1-17.52-3.1,41.84,41.84,0,0,1-13.87-8.6,32.6,32.6,0,0,1-8.45-12.95l18.91-7.13a17.56,17.56,0,0,0,7.37,9.53,24,24,0,0,0,13.56,3.65,24.45,24.45,0,0,0,10.93-2.33,17.3,17.3,0,0,0,7.37-6.74,20.45,20.45,0,0,0,2.63-10.62V101.56l3.88,4.66a28.89,28.89,0,0,1-11.63,11.47A34.84,34.84,0,0,1,667,121.56,41,41,0,0,1,646,116.14a38.88,38.88,0,0,1-14.58-14.88A43,43,0,0,1,626.11,80a42.34,42.34,0,0,1,5.26-21.23,38.86,38.86,0,0,1,14.42-14.65,40.37,40.37,0,0,1,20.78-5.35,34.14,34.14,0,0,1,16.66,3.95,33.28,33.28,0,0,1,12,11.4l-2.79,5.11V40.64h19.22v80.15a36.74,36.74,0,0,1-5.35,19.69,37.83,37.83,0,0,1-14.57,13.64A44.3,44.3,0,0,1,670.44,159.08Zm-.93-56.27a22.14,22.14,0,0,0,11.4-2.87,20.41,20.41,0,0,0,7.67-8,24.19,24.19,0,0,0,2.79-11.78,23.7,23.7,0,0,0-2.87-11.7,20.93,20.93,0,0,0-19-11.09A22.5,22.5,0,0,0,658,60.33a20.82,20.82,0,0,0-8,8.14,23.7,23.7,0,0,0-2.87,11.7,23.29,23.29,0,0,0,2.87,11.63,21.09,21.09,0,0,0,7.9,8.06A22.5,22.5,0,0,0,669.51,102.81Z"/><path class="cls-1" d="M726.72,125V40.64h19.07V59.4l-1.55-2.79q2.94-9.47,9.22-13.18a29.15,29.15,0,0,1,15.12-3.72h5v18h-7.29q-8.68,0-14,5.35T747,78v47Z"/><path class="cls-1" d="M806.4,126.84a37,37,0,0,1-15.35-3,22.34,22.34,0,0,1-13.64-21.24A23.57,23.57,0,0,1,790.12,81a47.75,47.75,0,0,1,16.44-5.27l27.59-4.5v15.5l-23.72,4q-6,1.1-9,3.88a9.59,9.59,0,0,0-3,7.28,8.22,8.22,0,0,0,3.34,6.9,13.17,13.17,0,0,0,8.29,2.56,22.72,22.72,0,0,0,11.24-2.71,19.35,19.35,0,0,0,7.6-7.52,21.05,21.05,0,0,0,2.71-10.54V68.85a11.47,11.47,0,0,0-4.26-9.07q-4.27-3.63-11.24-3.64a19.77,19.77,0,0,0-11.55,3.49,20.2,20.2,0,0,0-7.37,9.22l-16.58-8.06a29.33,29.33,0,0,1,7.82-11.55,39.56,39.56,0,0,1,12.64-7.67,43.87,43.87,0,0,1,15.81-2.79,42,42,0,0,1,18.3,3.79,29.74,29.74,0,0,1,12.32,10.55A28,28,0,0,1,852,68.85V125H832.76V110.56l4.34-.31a34.22,34.22,0,0,1-7.75,9.07,32.88,32.88,0,0,1-10.24,5.58A39.56,39.56,0,0,1,806.4,126.84Z"/><path class="cls-1" d="M866.86,125V40.64h19.07V60.17l-2.17-3.26q2.32-9.13,9.3-13.64a29.72,29.72,0,0,1,16.43-4.49,31.6,31.6,0,0,1,18.3,5.42A24.46,24.46,0,0,1,938,58.47l-5.74.46q3.88-10.07,11.63-15.11a34,34,0,0,1,33.87-1,28.94,28.94,0,0,1,11.09,11.24,33.52,33.52,0,0,1,4,16.66V125H972.59V75.52a21.33,21.33,0,0,0-2-9.61A15.39,15.39,0,0,0,965,59.63a15.93,15.93,0,0,0-8.68-2.25,16.14,16.14,0,0,0-8.52,2.25,15,15,0,0,0-5.74,6.28,21.33,21.33,0,0,0-2,9.61V125H919.73V75.52a21.32,21.32,0,0,0-2-9.61,15.13,15.13,0,0,0-5.66-6.28,17.43,17.43,0,0,0-17.13,0,15,15,0,0,0-5.74,6.28,21.33,21.33,0,0,0-2,9.61V125Z"/><path class="cls-2" d="M85.33,43.29a23.76,23.76,0,0,0,1.36,2.53c.46.87,1,1.7,1.48,2.53.79,1.29,1.58,2.57,2.42,3.78s1.7,2.49,2.6,3.66S95,58.17,96,59.35s1.92,2.26,2.91,3.36,2,2.19,3.09,3.25c1.36,1.36,2.8,2.68,4.27,4,1.14,1,2.31,2,3.48,3s2.08,1.66,3.17,2.45a86.63,86.63,0,0,0,14.36,8.81q-2.28,1.13-4.54,2.38a.11.11,0,0,0-.07,0c-1.51.87-3,1.78-4.5,2.72s-2.94,2-4.42,3c0,0-.07,0-.11.07q-2.2,1.59-4.31,3.29a89.88,89.88,0,0,0-13.63,13.67s0,0,0,.08a105.12,105.12,0,0,1,9.37,19,75.25,75.25,0,0,1,23.38-23.27,1.18,1.18,0,0,0,.19-.11c.83-.53,1.67-1,2.53-1.51.5-.3,1-.61,1.55-.87.87-.49,1.74-.91,2.61-1.36,1.44-.72,3-1.4,4.42-2,.79-.3,1.62-.6,2.42-.94,1-.38,2-.72,3.06-1.06s1.77-.61,2.72-.83a75.83,75.83,0,0,1,20-2.76h.23V74.68A74.76,74.76,0,0,1,93.53,0H74.64A92.58,92.58,0,0,0,85.33,43.29ZM39.78,63.2h0l-.19.11A73.86,73.86,0,0,1,.23,74.68H0V93.57a74.7,74.7,0,0,1,74.64,74.64H93.53v-1.09a92.07,92.07,0,0,0-9.44-39.82A88.5,88.5,0,0,0,77,115.18c-.65-1-1.33-1.89-2-2.8-.9-1.21-1.81-2.38-2.79-3.55s-1.93-2.27-2.91-3.36-2-2.19-3.1-3.25-2.15-2.08-3.25-3.1S60.48,97,59.19,95.91,56.81,94,55.61,93.12l-2.38-1.7a1.48,1.48,0,0,0-.5-.34c-1-.68-2-1.36-3-2S47.9,87.94,47,87.45a61.72,61.72,0,0,0-6.08-3.32A90.42,90.42,0,0,0,58.74,72.72c.08,0,.11-.12.19-.15A93,93,0,0,0,72.53,59a110.24,110.24,0,0,1-9.44-19.15A75.49,75.49,0,0,1,39.78,63.2Z"/></g></g></svg>