<svg xmlns="http://www.w3.org/2000/svg" viewBox="0 0 315.8 40.01"><defs><style>.cls-1{fill:#fff;}.cls-2{fill:#2c4be5;}</style></defs><title>logo-ambigram-negativa</title><g id="Layer_2" data-name="Layer 2"><g id="Layer_1-2" data-name="Layer 1"><path class="cls-1" d="M97,5.26h5.58l12.55,26H109.6l-2.07-4.37H92.37l-2,4.37H84.82Zm8.45,17.25L99.84,10.72,94.38,22.51Z"/><path class="cls-1" d="M118.69,11.62h4.91v1.66a13.05,13.05,0,0,1,3.59-1.57,14.22,14.22,0,0,1,3.43-.44,11.91,11.91,0,0,1,4.3.75,8.72,8.72,0,0,1,3.36,2.26,15,15,0,0,1,2.12-1.41,13.66,13.66,0,0,1,2.09-.93,12.22,12.22,0,0,1,2.13-.51,14.69,14.69,0,0,1,2.22-.16,13.64,13.64,0,0,1,4.37.66,8.83,8.83,0,0,1,3.34,2,8.5,8.5,0,0,1,2.14,3.23,12.1,12.1,0,0,1,.76,4.47v9.63h-4.9V22.38a8.54,8.54,0,0,0-.45-2.88,6.07,6.07,0,0,0-1.28-2.14,5.29,5.29,0,0,0-2-1.33,6.54,6.54,0,0,0-2.5-.46,9,9,0,0,0-1.53.14,8.23,8.23,0,0,0-1.52.44,6.63,6.63,0,0,0-1.38.76A5.22,5.22,0,0,0,140.8,18V31.21h-4.9V22.38a8.29,8.29,0,0,0-.46-2.88,6.06,6.06,0,0,0-1.27-2.14,5.29,5.29,0,0,0-2-1.33,6.7,6.7,0,0,0-2.53-.46,8.91,8.91,0,0,0-1.7.17,10.13,10.13,0,0,0-1.65.49,9.32,9.32,0,0,0-1.47.77,7.28,7.28,0,0,0-1.24,1v13.2h-4.91Z"/><path class="cls-1" d="M163.49,3.67h4.92v9.79a9.34,9.34,0,0,1,1.52-.84,14.13,14.13,0,0,1,1.9-.7,15.5,15.5,0,0,1,2.09-.47,13.12,13.12,0,0,1,2.16-.18,13.65,13.65,0,0,1,4.57.73,10.6,10.6,0,0,1,3.58,2.06,9.56,9.56,0,0,1,2.33,3.18,9.78,9.78,0,0,1,.84,4.09,9.85,9.85,0,0,1-.88,4.23,9.66,9.66,0,0,1-2.43,3.22,11.23,11.23,0,0,1-3.69,2.06,14.34,14.34,0,0,1-4.62.72,18.21,18.21,0,0,1-2.1-.13,19.53,19.53,0,0,1-2-.37,13.08,13.08,0,0,1-1.8-.56,9.74,9.74,0,0,1-1.48-.7v1.41h-4.92Zm4.92,21.38a8.54,8.54,0,0,0,1.57,1,10.22,10.22,0,0,0,1.7.68,10.42,10.42,0,0,0,1.74.39,11.32,11.32,0,0,0,1.71.13,9,9,0,0,0,3-.46,6.51,6.51,0,0,0,2.23-1.25,5.42,5.42,0,0,0,1.38-1.88,5.55,5.55,0,0,0,.49-2.34,5.24,5.24,0,0,0-.48-2.22,5.41,5.41,0,0,0-1.36-1.84A6.51,6.51,0,0,0,178.26,16a8,8,0,0,0-2.81-.46,10.42,10.42,0,0,0-2,.19,12,12,0,0,0-1.91.54,9.93,9.93,0,0,0-1.73.85,7.13,7.13,0,0,0-1.4,1.11Z"/><path class="cls-1" d="M194.54,9a3.89,3.89,0,0,1-1.32-.21,3.2,3.2,0,0,1-1-.57,2.47,2.47,0,0,1-.64-.83,2.37,2.37,0,0,1,.64-2.84,3.39,3.39,0,0,1,1-.56,4.29,4.29,0,0,1,2.65,0,3.27,3.27,0,0,1,1,.56,2.33,2.33,0,0,1,.86,1.84,2.28,2.28,0,0,1-.22,1,2.35,2.35,0,0,1-.64.83,3.09,3.09,0,0,1-1,.57A3.91,3.91,0,0,1,194.54,9Zm-2.46,2.67H197V31.21h-4.92Z"/><path class="cls-1" d="M206.36,34.53a17.81,17.81,0,0,0,1.89.56c.64.15,1.27.27,1.87.36s1.18.16,1.73.2,1.05.06,1.48.06a11.19,11.19,0,0,0,3.41-.47A7.54,7.54,0,0,0,219.17,34a5.2,5.2,0,0,0,1.93-4.09V29a9.64,9.64,0,0,1-1.48.83,12.22,12.22,0,0,1-1.86.7,16.57,16.57,0,0,1-2.15.48,13.81,13.81,0,0,1-2.35.19,13,13,0,0,1-4.44-.73,10.7,10.7,0,0,1-3.54-2A9.14,9.14,0,0,1,203,25.35a9.59,9.59,0,0,1-.84-4.05,9.47,9.47,0,0,1,.88-4.13A9.3,9.3,0,0,1,205.42,14a11.31,11.31,0,0,1,3.68-2,14.51,14.51,0,0,1,4.61-.71,18.53,18.53,0,0,1,2.11.13,16.91,16.91,0,0,1,2,.37,12.53,12.53,0,0,1,1.79.56,9.87,9.87,0,0,1,1.49.7V11.62H226V29a12.85,12.85,0,0,1-.81,4.73,9,9,0,0,1-2.38,3.46,10.43,10.43,0,0,1-3.89,2.13,18,18,0,0,1-5.33.72c-.72,0-1.47,0-2.24-.09s-1.56-.15-2.34-.27-1.55-.25-2.3-.41-1.49-.35-2.19-.56Zm.91-13.28a5.35,5.35,0,0,0,.47,2.21,5.24,5.24,0,0,0,1.36,1.81,6.38,6.38,0,0,0,2.12,1.22,8.5,8.5,0,0,0,2.81.44,11.51,11.51,0,0,0,2-.19A12.1,12.1,0,0,0,218,26.2a10.69,10.69,0,0,0,1.73-.85,7.44,7.44,0,0,0,1.4-1.11V17.78a8.29,8.29,0,0,0-1.58-1,9.79,9.79,0,0,0-1.69-.68,10.88,10.88,0,0,0-1.74-.39,11.32,11.32,0,0,0-1.71-.13,9.36,9.36,0,0,0-3,.45,6.58,6.58,0,0,0-2.22,1.22,5.26,5.26,0,0,0-1.39,1.8A5.17,5.17,0,0,0,207.27,21.25Z"/><path class="cls-1" d="M231.61,11.62h4.91v2.82A21.62,21.62,0,0,1,240,12.35a19.29,19.29,0,0,1,3.6-1.34L245,15.5a15.8,15.8,0,0,0-5,1.27,8.94,8.94,0,0,0-3.5,2.79V31.21h-4.91Z"/><path class="cls-1" d="M247.73,25a5.42,5.42,0,0,1,.61-2.57,5.65,5.65,0,0,1,1.85-2,9.57,9.57,0,0,1,3.06-1.3,18,18,0,0,1,4.27-.45,30.12,30.12,0,0,1,3.81.26,34.62,34.62,0,0,1,4.13.82,4,4,0,0,0-.56-1.72,4.45,4.45,0,0,0-1.34-1.36,6.82,6.82,0,0,0-2.06-.89,10.77,10.77,0,0,0-2.73-.32c-.55,0-1.16,0-1.83.1s-1.35.17-2.06.3-1.4.3-2.1.5a14.58,14.58,0,0,0-1.93.71l-1.49-4c.74-.27,1.53-.51,2.38-.73s1.71-.41,2.6-.57,1.77-.29,2.65-.38,1.75-.13,2.58-.13q5.49,0,8.16,2.81c1.79,1.87,2.68,4.73,2.68,8.6v8.53h-4.92V29.37a14.44,14.44,0,0,1-1.67.84,14,14,0,0,1-2,.7,16.53,16.53,0,0,1-2.29.47,17.61,17.61,0,0,1-2.58.18,14.68,14.68,0,0,1-4-.5,8.59,8.59,0,0,1-2.9-1.38A5.63,5.63,0,0,1,247.73,25Zm5.18-.16a1.79,1.79,0,0,0,.25.92,2.22,2.22,0,0,0,.8.78,4.7,4.7,0,0,0,1.4.55,8.81,8.81,0,0,0,2.06.2,12.88,12.88,0,0,0,2.51-.23,14.6,14.6,0,0,0,2.26-.61,11.83,11.83,0,0,0,1.89-.88,7.57,7.57,0,0,0,1.41-1v-.86c-.75-.21-1.49-.39-2.23-.54s-1.44-.25-2.11-.34-1.3-.14-1.89-.17-1.11-.05-1.55-.05a12.06,12.06,0,0,0-2.29.18,5.33,5.33,0,0,0-1.48.49,2,2,0,0,0-.8.72A1.83,1.83,0,0,0,252.91,24.87Z"/><path class="cls-1" d="M277,11.62H282v1.66a12.8,12.8,0,0,1,3.59-1.57,14.22,14.22,0,0,1,3.43-.44,12,12,0,0,1,4.3.75,8.76,8.76,0,0,1,3.35,2.26,15.65,15.65,0,0,1,2.13-1.41,13.24,13.24,0,0,1,2.09-.93,12.12,12.12,0,0,1,2.12-.51,14.72,14.72,0,0,1,2.23-.16,13.57,13.57,0,0,1,4.36.66,8.87,8.87,0,0,1,3.35,2A8.62,8.62,0,0,1,315,17.11a12.31,12.31,0,0,1,.76,4.47v9.63h-4.9V22.38a8.29,8.29,0,0,0-.46-2.88,5.93,5.93,0,0,0-1.28-2.14,5.21,5.21,0,0,0-2-1.33,6.49,6.49,0,0,0-2.49-.46,9,9,0,0,0-1.53.14,8,8,0,0,0-1.52.44,7,7,0,0,0-1.39.76A5.46,5.46,0,0,0,299.14,18V31.21h-4.89V22.38a8.53,8.53,0,0,0-.46-2.88,5.93,5.93,0,0,0-1.28-2.14,5.25,5.25,0,0,0-2-1.33,6.75,6.75,0,0,0-2.54-.46,9,9,0,0,0-1.7.17,10,10,0,0,0-1.64.49,9,9,0,0,0-1.48.77A7.2,7.2,0,0,0,282,18v13.2H277Z"/><path class="cls-2" d="M29.83,7.49a20.91,20.91,0,0,1,6.33.7l3.89-6.74A31.33,31.33,0,0,0,29.83,0a36.49,36.49,0,0,0-27,11.91C.87,14,1.4,13,0,15.51l6.78,3.3h0A29.17,29.17,0,0,1,29.83,7.49Z"/><path class="cls-2" d="M51.64,21.16h0a29.16,29.16,0,0,1-23,11.31,18.51,18.51,0,0,1-6.09-.64l-3.9,6.74A29.69,29.69,0,0,0,28.6,40a36.54,36.54,0,0,0,27-11.9C57.56,26,57,27,58.43,24.46Z"/><circle class="cls-2" cx="29.21" cy="19.99" r="8.58"/></g></g></svg>