<?xml version="1.0" encoding="UTF-8"?>
<svg id="Layer_1" xmlns="http://www.w3.org/2000/svg" version="1.1" viewBox="0 0 614.6 168.2">
  <!-- Generator: Adobe Illustrator 30.3.0, SVG Export Plug-In . SVG Version: 2.1.3 Build 182)  -->
  <defs>
    <style>
      .st0 {
        fill: #fff;
      }

      .st1 {
        fill: #0000fe;
      }
    </style>
  </defs>
  <g id="Layer_2">
    <g id="Layer_3">
      <path class="st0" d="M335.3,53.1c-3.1-4.6-7.3-8.2-12.3-10.5-5.7-2.6-12-3.9-18.3-3.8-5.4,0-10.8.9-15.8,2.8-4.7,1.7-8.9,4.3-12.6,7.7-3.5,3.2-6.2,7.1-7.8,11.6l16.6,8.1c1.5-3.7,4-6.9,7.4-9.2,3.4-2.3,7.4-3.6,11.5-3.5,4.6,0,8.4,1.2,11.2,3.6,2.7,2.2,4.3,5.6,4.3,9.1v2.8l-25.1,4.1c-5.8.7-11.3,2.5-16.4,5.3-8,4.2-13,12.6-12.7,21.6-.3,9.2,5.1,17.7,13.6,21.2,4.8,2.1,10.1,3.1,15.3,3,4.3,0,8.6-.6,12.7-1.9,3.7-1.2,7.2-3.1,10.2-5.6,1.2-1,2.4-2.1,3.4-3.3v9h19.2v-56.1c.1-5.6-1.4-11-4.4-15.7ZM316.7,101.1c-1.8,3.2-4.4,5.8-7.6,7.5-3.5,1.9-7.3,2.8-11.2,2.7-3,.1-5.9-.8-8.3-2.6-2.2-1.6-3.4-4.2-3.3-6.9,0-2.7,1-5.4,3-7.3,2-1.9,5-3.1,9-3.9l21.2-3.6v3.4c0,3.7-.9,7.3-2.7,10.5Z"/>
      <path class="st0" d="M476.7,54.1c-2.6-4.7-6.4-8.6-11.1-11.2-10.7-5.7-23.6-5.3-33.9,1-3.3,2.2-6.1,5-8.4,8.6-1.9-3.3-4.5-6.1-7.7-8.2-5.4-3.6-11.8-5.5-18.3-5.4-5.8-.1-11.5,1.4-16.4,4.5-3,2-5.4,4.6-7.1,7.9v-10.5h-19.1v84.4h20.3v-49.5c0-3.3.6-6.6,2-9.6,1.3-2.6,3.2-4.8,5.7-6.3,5.3-3,11.8-3,17.1,0,2.4,1.5,4.4,3.7,5.7,6.3,1.4,3,2.1,6.3,2,9.6v49.5h20.4v-49.5c0-3.3.6-6.6,2-9.6,1.3-2.6,3.3-4.8,5.7-6.3,2.6-1.5,5.5-2.3,8.5-2.2,3,0,6.1.7,8.7,2.2,2.4,1.5,4.3,3.7,5.6,6.3,1.4,3,2.1,6.3,2,9.6v49.5h20.3v-54.3c.1-5.8-1.3-11.5-4-16.7Z"/>
      <path class="st0" d="M577,60.5c-3.7-6.5-8.9-11.9-15.2-15.8-6.5-4-14-6-21.5-5.9-6-.1-11.9,1.2-17.2,3.8-3.3,1.6-6.2,3.9-8.7,6.6V7.6h-20.3v117.4h19.1v-9.6c2.8,3.3,6.2,6,10.2,7.8,5.3,2.5,11,3.7,16.8,3.7,7.7.1,15.3-1.9,21.9-5.8,6.4-3.9,11.6-9.3,15.2-15.9,3.7-6.8,5.7-14.5,5.6-22.3.1-7.8-1.8-15.5-5.7-22.3ZM558.6,96c-1.9,3.7-4.8,6.8-8.5,9-3.8,2.2-8,3.3-12.4,3.2-8.6.1-16.5-4.6-20.4-12.2-2.1-4.1-3.1-8.6-3-13.2,0-4.5,1-9,3-13.1,3.9-7.7,11.8-12.5,20.4-12.3,8.7-.2,16.8,4.6,20.8,12.3,2.1,4.1,3.1,8.6,3,13.1,0,4.6-.9,9.1-3,13.2Z"/>
      <path class="st0" d="M594.3,31.2V9.5h20.3v21.7h-20.3ZM594.3,125V40.6h20.3v84.4h-20.3Z"/>
      <path class="st1" d="M85.3,43.3c.4.9.9,1.7,1.4,2.5.5.9,1,1.7,1.5,2.5.8,1.3,1.6,2.6,2.4,3.8s1.7,2.5,2.6,3.7,1.8,2.4,2.8,3.6,1.9,2.3,2.9,3.4,2,2.2,3.1,3.2c1.4,1.4,2.8,2.7,4.3,4,1.1,1,2.3,2,3.5,3s2.1,1.7,3.2,2.4c4.5,3.4,9.3,6.3,14.4,8.8-1.5.8-3,1.5-4.5,2.4,0,0,0,0,0,0-1.5.9-3,1.8-4.5,2.7s-2.9,2-4.4,3c0,0,0,0-.1,0-1.5,1.1-2.9,2.2-4.3,3.3-5,4.1-9.6,8.6-13.6,13.7h0c3.8,6.1,6.9,12.4,9.4,19.1,6-9.4,14-17.3,23.4-23.3,0,0,.1,0,.2-.1.8-.5,1.7-1,2.5-1.5.5-.3,1-.6,1.6-.9.9-.5,1.7-.9,2.6-1.4,1.4-.7,3-1.4,4.4-2,.8-.3,1.6-.6,2.4-.9,1-.4,2-.7,3.1-1.1s1.8-.6,2.7-.8c6.5-1.8,13.2-2.7,20-2.8h.2v-19c-41.2,0-74.6-33.5-74.7-74.7h-18.9c0,15.1,3.7,29.9,10.7,43.3ZM39.8,63.2h-.2c-11.8,7.5-25.4,11.5-39.4,11.5h-.2v18.9c41.2,0,74.6,33.4,74.6,74.6h18.9v-1.1c-.1-13.8-3.3-27.4-9.4-39.8-2-4.2-4.4-8.3-7.1-12.1-.7-1-1.3-1.9-2-2.8-.9-1.2-1.8-2.4-2.8-3.6s-1.9-2.3-2.9-3.4-2-2.2-3.1-3.2-2.2-2.1-3.2-3.1-2.5-2.1-3.8-3.2-2.4-1.9-3.6-2.8l-2.4-1.7c-.1-.1-.3-.3-.5-.3-1-.7-2-1.4-3-2s-1.8-1.1-2.7-1.6c-2-1.2-4-2.3-6.1-3.3,6.4-3.1,12.3-6.9,17.8-11.4,0,0,.1-.1.2-.2,5-4,9.5-8.6,13.6-13.6-3.8-6.1-6.9-12.5-9.4-19.2-6,9.4-13.9,17.4-23.3,23.4Z"/>
    </g>
  </g>
</svg>