<svg xmlns="http://www.w3.org/2000/svg" viewBox="0 0 250 42.46"><defs><style>.cls-1{fill:#fff;}.cls-2{fill:#0762c8;}</style></defs><g id="Layer_2" data-name="Layer 2"><g id="_1_-_Moodboard" data-name="1 - Moodboard"><path class="cls-1" d="M77.46,34.4l7-26.18h6l6.9,26.18H93.43l-6-23.76h0l-6,23.76Zm4-6.65V24.57H93.4v3.18Z"/><path class="cls-1" d="M101.16,34.4V15.58H105V34.4Zm11.63,0V23.22a12.86,12.86,0,0,0-.09-1.47,4.75,4.75,0,0,0-.43-1.46,2.59,2.59,0,0,0-1-1.11,3.63,3.63,0,0,0-1.89-.42A3.78,3.78,0,0,0,106,20.5a5.56,5.56,0,0,0-.74,1.75,8.57,8.57,0,0,0-.23,1.94l-1.63-.88a9.06,9.06,0,0,1,.88-4,7.25,7.25,0,0,1,2.48-2.91,6.62,6.62,0,0,1,3.78-1.09,6.17,6.17,0,0,1,3.55.92A5.11,5.11,0,0,1,116,18.68a9.82,9.82,0,0,1,.6,3.55V34.4Zm11.59,0V23.17a12.83,12.83,0,0,0-.09-1.5,4.31,4.31,0,0,0-.42-1.43,2.73,2.73,0,0,0-1-1.07,3.78,3.78,0,0,0-1.94-.41,4.12,4.12,0,0,0-2,.46,3.84,3.84,0,0,0-1.32,1.24,5.31,5.31,0,0,0-.7,1.7A7.61,7.61,0,0,0,116.6,24L115,23.13a8.93,8.93,0,0,1,.86-3.91,7,7,0,0,1,2.45-2.86,7.32,7.32,0,0,1,7.25-.23,5.17,5.17,0,0,1,2,2.36A8.62,8.62,0,0,1,128.2,22V34.4Z"/><path class="cls-1" d="M133.08,34.4V6.71h3.86V34.4Zm9.9.37a7.87,7.87,0,0,1-4.08-1.11,8.57,8.57,0,0,1-3-3,8.24,8.24,0,0,1-1.17-4.37V26l2.24-.06v.18a4.69,4.69,0,0,0,.75,2.61,5.41,5.41,0,0,0,2,1.84,5.28,5.28,0,0,0,2.58.67,5.2,5.2,0,0,0,3.82-1.55A6.53,6.53,0,0,0,147.6,25a6.47,6.47,0,0,0-1.54-4.77,5.22,5.22,0,0,0-3.83-1.53,5.27,5.27,0,0,0-2.58.66,5.5,5.5,0,0,0-2,1.81,4.64,4.64,0,0,0-.75,2.61l-2.24-.09a8,8,0,0,1,1.17-4.34,8.24,8.24,0,0,1,3-2.95A8.13,8.13,0,0,1,143,15.28a8.27,8.27,0,0,1,7.37,4.41,10.71,10.71,0,0,1,1.2,5.26,11.28,11.28,0,0,1-1.17,5.37,8.09,8.09,0,0,1-3.12,3.32A8.4,8.4,0,0,1,143,34.77Z"/><path class="cls-1" d="M157.77,11.69a2.77,2.77,0,0,1-1.71-.54,1.77,1.77,0,0,1-.72-1.5,1.75,1.75,0,0,1,.72-1.48,2.77,2.77,0,0,1,1.71-.54,2.73,2.73,0,0,1,1.69.54,1.75,1.75,0,0,1,.72,1.48,1.77,1.77,0,0,1-.72,1.5A2.73,2.73,0,0,1,157.77,11.69ZM155.85,34.4V15.58h3.8V34.4Z"/><path class="cls-1" d="M177.09,32.89a10.87,10.87,0,0,1,2.8.59,4.35,4.35,0,0,1,1.89,1.33,3.71,3.71,0,0,1,.68,2.31,4,4,0,0,1-1.09,2.81,7.1,7.1,0,0,1-3.25,1.86,18.61,18.61,0,0,1-5.37.67,14.79,14.79,0,0,1-7-1.33,4,4,0,0,1-2.41-3.62,4.15,4.15,0,0,1,.16-1.22,3,3,0,0,1,.39-.88l3.57.53a2.56,2.56,0,0,0-.37,1.36c0,.84.52,1.44,1.54,1.79a13.73,13.73,0,0,0,4.27.53,16.94,16.94,0,0,0,3.32-.27,5,5,0,0,0,2-.79,1.49,1.49,0,0,0,.65-1.21A1.22,1.22,0,0,0,178,36a11.56,11.56,0,0,0-2.18-.37l-7.14-.58a5.4,5.4,0,0,1-3-1.12,3,3,0,0,1-1.18-2.41,3.22,3.22,0,0,1,.46-1.68A5,5,0,0,1,166,28.57a3.08,3.08,0,0,1,1-.66l2.52,1.21a2,2,0,0,0-1,.54A1.43,1.43,0,0,0,168,30.8a1.21,1.21,0,0,0,.5,1,4.15,4.15,0,0,0,2,.52Zm2.36-17.31h3.49l-1.44,7.36a10.73,10.73,0,0,1-1.42,3.71,7.48,7.48,0,0,1-2.8,2.61,9.11,9.11,0,0,1-4.39,1,10.9,10.9,0,0,1-4.69-.94,7.06,7.06,0,0,1-3-2.62,7,7,0,0,1-1.05-3.81,7.09,7.09,0,0,1,1.09-3.9,7.42,7.42,0,0,1,3-2.69,9.6,9.6,0,0,1,4.4-1,9.23,9.23,0,0,1,3.71.71,7.18,7.18,0,0,1,2.58,1.81,3.94,3.94,0,0,1,1,2.28l-1.1.13Zm-6.57,11.5a6.49,6.49,0,0,0,2.65-.5,3.83,3.83,0,0,0,1.72-1.47,4.34,4.34,0,0,0,.6-2.33,4.33,4.33,0,0,0-.6-2.32A3.91,3.91,0,0,0,175.53,19a6.12,6.12,0,0,0-2.64-.53,5.91,5.91,0,0,0-2.59.54,4.22,4.22,0,0,0-1.76,1.52,4.1,4.1,0,0,0-.64,2.32,4.18,4.18,0,0,0,.6,2.29,3.86,3.86,0,0,0,1.72,1.46A6.51,6.51,0,0,0,172.88,27.08Z"/><path class="cls-1" d="M186.57,34.4V15.58h3.84v6l-1-.46a7.23,7.23,0,0,1,.58-2.2,6.89,6.89,0,0,1,1.23-1.87,5.44,5.44,0,0,1,1.91-1.3,6.62,6.62,0,0,1,2.62-.48,7.61,7.61,0,0,1,1.83.18,3.91,3.91,0,0,1,.86.28l-.82,3.62a3.35,3.35,0,0,0-.71-.32,4.56,4.56,0,0,0-1.5-.2,5.09,5.09,0,0,0-2.41.52,4.09,4.09,0,0,0-1.52,1.36,5.77,5.77,0,0,0-.81,1.85,8.63,8.63,0,0,0-.24,2V34.4Z"/><path class="cls-1" d="M207.67,34.77a9.55,9.55,0,0,1-3.73-.68,5.53,5.53,0,0,1-2.49-1.93,5.09,5.09,0,0,1-.89-3,4.88,4.88,0,0,1,1-3.14,6.38,6.38,0,0,1,2.77-1.92,15.06,15.06,0,0,1,4-.9,43,43,0,0,0,4.72-.65c.91-.21,1.37-.56,1.37-1.05v0a2.4,2.4,0,0,0-1.22-2.18,6.74,6.74,0,0,0-3.49-.74,6.81,6.81,0,0,0-3.69.84,2.93,2.93,0,0,0-1.3,2.66H201a5.93,5.93,0,0,1,1.13-3.66,7,7,0,0,1,3.11-2.3,12.36,12.36,0,0,1,4.55-.79A12.22,12.22,0,0,1,214,16a6.91,6.91,0,0,1,3.09,2.14,5.39,5.39,0,0,1,1.16,3.52v9c0,.44,0,.86.05,1.27a5.6,5.6,0,0,0,.19,1.09,4.27,4.27,0,0,0,.38.9,2.91,2.91,0,0,0,.37.5h-3.83a3.1,3.1,0,0,1-.31-.46,4.26,4.26,0,0,1-.36-.8,4.77,4.77,0,0,1-.24-1,9.61,9.61,0,0,1-.08-1.25l.71.5a5.2,5.2,0,0,1-1.6,1.79A8.57,8.57,0,0,1,211,34.34,11.92,11.92,0,0,1,207.67,34.77Zm.79-3.19a8.31,8.31,0,0,0,3-.52,4.8,4.8,0,0,0,2.16-1.6,4.28,4.28,0,0,0,.82-2.7V23.64l.9,1.19a13.49,13.49,0,0,1-2.77.72c-1.09.18-2.22.33-3.37.45a10.4,10.4,0,0,0-3.6.82,2.11,2.11,0,0,0-1.2,2,2.32,2.32,0,0,0,1,2A5.49,5.49,0,0,0,208.46,31.58Z"/><path class="cls-1" d="M223,34.4V15.58h3.85V34.4Zm11.64,0V23.22a11,11,0,0,0-.1-1.47,4.48,4.48,0,0,0-.42-1.46,2.59,2.59,0,0,0-1-1.11,3.64,3.64,0,0,0-1.9-.42,4,4,0,0,0-2,.47,3.83,3.83,0,0,0-1.35,1.27,5.56,5.56,0,0,0-.74,1.75,8,8,0,0,0-.23,1.94l-1.63-.88a9.19,9.19,0,0,1,.87-4,7.33,7.33,0,0,1,2.48-2.91,6.62,6.62,0,0,1,3.78-1.09,6.22,6.22,0,0,1,3.56.92,5.16,5.16,0,0,1,1.94,2.48,9.82,9.82,0,0,1,.6,3.55V34.4Zm11.58,0V23.17c0-.49,0-1-.08-1.5a4.32,4.32,0,0,0-.43-1.43,2.67,2.67,0,0,0-1-1.07,3.76,3.76,0,0,0-1.94-.41,4.1,4.1,0,0,0-2,.46,3.84,3.84,0,0,0-1.32,1.24,5.33,5.33,0,0,0-.71,1.7A8.14,8.14,0,0,0,238.4,24l-1.63-.85a8.79,8.79,0,0,1,.86-3.91,7,7,0,0,1,2.44-2.86,7.34,7.34,0,0,1,7.26-.23,5.15,5.15,0,0,1,2,2.36A8.62,8.62,0,0,1,250,22V34.4Z"/><path class="cls-2" d="M21.12,10.71a5.41,5.41,0,0,0,.33.63c.11.21.24.42.37.62s.39.64.59.94.43.62.65.91.45.58.69.87.48.57.72.84.51.54.77.8.69.66,1.05,1,.57.5.86.73l.79.61a21.8,21.8,0,0,0,3.55,2.18c-.37.18-.75.38-1.12.59h0c-.37.22-.75.44-1.11.68s-.73.48-1.1.74h0c-.37.27-.72.54-1.07.82A22.44,22.44,0,0,0,23.68,27s0,0,0,0A26.19,26.19,0,0,1,26,31.75,18.61,18.61,0,0,1,31.79,26l.05,0,.62-.38.39-.21.64-.34c.36-.18.73-.34,1.09-.5.2-.08.41-.15.6-.24l.76-.26c.22-.07.44-.15.67-.2a18.84,18.84,0,0,1,5-.69h0V18.48A18.5,18.5,0,0,1,23.14,0H18.47A22.77,22.77,0,0,0,21.12,10.71ZM9.84,15.64h0l0,0A18.36,18.36,0,0,1,.06,18.48H0v4.67A18.48,18.48,0,0,1,18.47,41.62h4.67v-.27a22.77,22.77,0,0,0-2.33-9.85,22.44,22.44,0,0,0-1.76-3c-.16-.23-.33-.47-.5-.69s-.44-.59-.69-.88-.47-.56-.72-.83l-.76-.81-.81-.76-.92-.8c-.29-.24-.59-.47-.89-.69l-.59-.42a.23.23,0,0,0-.12-.08L12.3,22c-.22-.14-.45-.28-.67-.4a14.69,14.69,0,0,0-1.51-.82A22.09,22.09,0,0,0,14.53,18l.05,0A22.84,22.84,0,0,0,18,14.59a26.78,26.78,0,0,1-2.34-4.74A18.65,18.65,0,0,1,9.84,15.64Z"/></g></g></svg>