<svg width="32" height="32" viewBox="0 0 32 32" fill="none" xmlns="http://www.w3.org/2000/svg">
<g clip-path="url(#clip0_1206_6)">
<path d="M12.0871 13.1628L24.9528 14.2349L22.2725 20.1317L9.94286 21.2038L8.33466 17.4513L12.0871 13.1628Z" fill="white"/>
<path d="M30.6709 19.2382C30.6709 22.2713 29.466 25.1801 27.3213 27.3248C25.1766 29.4695 22.2678 30.6744 19.2347 30.6744" stroke="black" stroke-width="2.68035" stroke-linecap="round" stroke-linejoin="round"/>
<path d="M24.9528 14.9497V13.5202C24.9528 12.7619 24.6516 12.0347 24.1154 11.4985C23.5792 10.9623 22.852 10.6611 22.0938 10.6611C21.3355 10.6611 20.6083 10.9623 20.0721 11.4985C19.536 12.0347 19.2347 12.7619 19.2347 13.5202" fill="white"/>
<path d="M24.9528 14.9497V13.5202C24.9528 12.7619 24.6516 12.0347 24.1154 11.4985C23.5792 10.9623 22.852 10.6611 22.0938 10.6611C21.3355 10.6611 20.6083 10.9623 20.0721 11.4985C19.536 12.0347 19.2347 12.7619 19.2347 13.5202" stroke="black" stroke-width="2.68035" stroke-linecap="round" stroke-linejoin="round"/>
<path d="M19.2348 13.5202V12.0906C19.2348 11.3324 18.9335 10.6052 18.3974 10.069C17.8612 9.53282 17.134 9.2316 16.3757 9.2316C15.6175 9.2316 14.8903 9.53282 14.3541 10.069C13.8179 10.6052 13.5167 11.3324 13.5167 12.0906V13.5202" fill="white"/>
<path d="M19.2348 13.5202V12.0906C19.2348 11.3324 18.9335 10.6052 18.3974 10.069C17.8612 9.53282 17.134 9.2316 16.3757 9.2316C15.6175 9.2316 14.8903 9.53282 14.3541 10.069C13.8179 10.6052 13.5167 11.3324 13.5167 12.0906V13.5202" stroke="black" stroke-width="2.68035" stroke-linecap="round" stroke-linejoin="round"/>
<path d="M13.5167 14.2349V4.94305C13.5167 4.18479 13.2155 3.45758 12.6793 2.92141C12.1431 2.38523 11.4159 2.08401 10.6576 2.08401C9.89939 2.08401 9.17218 2.38523 8.63601 2.92141C8.09983 3.45758 7.79861 4.18479 7.79861 4.94305V19.2382" fill="white"/>
<path d="M13.5167 14.2349V4.94305C13.5167 4.18479 13.2155 3.45758 12.6793 2.92141C12.1431 2.38523 11.4159 2.08401 10.6577 2.08401C9.89939 2.08401 9.17218 2.38523 8.63601 2.92141C8.09983 3.45758 7.79861 4.18479 7.79861 4.94305V19.2382" stroke="black" stroke-width="2.68035" stroke-linecap="round" stroke-linejoin="round"/>
<path d="M24.9528 14.9497C24.9528 14.1914 25.254 13.4642 25.7902 12.928C26.3264 12.3919 27.0536 12.0906 27.8119 12.0906C28.5701 12.0906 29.2973 12.3919 29.8335 12.928C30.3697 13.4642 30.6709 14.1914 30.6709 14.9497V19.2382C30.6709 22.2713 29.466 25.1801 27.3213 27.3248C25.1766 29.4695 22.2678 30.6744 19.2348 30.6744H16.3757C12.3731 30.6744 9.94289 29.445 7.81291 27.3293L2.66665 22.183C2.1748 21.6383 1.91127 20.9253 1.93062 20.1916C1.94997 19.458 2.25072 18.7598 2.7706 18.2418C3.29048 17.7238 3.98967 17.4255 4.7234 17.4087C5.45713 17.392 6.1692 17.658 6.71218 18.1518L9.22813 20.6677" fill="white"/>
<path d="M24.9528 14.9497C24.9528 14.1914 25.254 13.4642 25.7902 12.928C26.3264 12.3919 27.0536 12.0906 27.8119 12.0906C28.5701 12.0906 29.2973 12.3919 29.8335 12.928C30.3697 13.4642 30.6709 14.1914 30.6709 14.9497V19.2382C30.6709 22.2713 29.466 25.1801 27.3213 27.3248C25.1766 29.4695 22.2678 30.6744 19.2348 30.6744H16.3757C12.3731 30.6744 9.94289 29.445 7.81291 27.3293L2.66665 22.183C2.1748 21.6383 1.91127 20.9253 1.93062 20.1916C1.94997 19.458 2.25072 18.7598 2.7706 18.2418C3.29048 17.7238 3.98967 17.4255 4.7234 17.4087C5.45713 17.392 6.1692 17.658 6.71218 18.1518L9.22813 20.6677" stroke="black" stroke-width="2.68035" stroke-linecap="round" stroke-linejoin="round"/>
</g>
<defs>
<clipPath id="clip0_1206_6">
<rect width="32" height="32" fill="white"/>
</clipPath>
</defs>
</svg>
