<svg xmlns="http://www.w3.org/2000/svg" viewBox="0 0 36.74 36.75"><defs><style>.cls-1{fill:#fff;}</style></defs><g id="Layer_2" data-name="Layer 2"><g id="_1_-_Moodboard" data-name="1 - Moodboard"><path class="cls-1" d="M18.64,9.46a4.21,4.21,0,0,0,.3.55c.1.19.21.37.32.55s.35.56.53.83.37.54.57.8.39.52.61.77l.63.74c.23.24.45.48.68.71s.61.58.93.87l.76.64.7.54a19.59,19.59,0,0,0,3.13,1.92c-.33.16-.66.34-1,.52a0,0,0,0,0,0,0c-.33.19-.66.38-1,.59s-.64.43-1,.65l0,0c-.32.23-.63.47-.94.72a20,20,0,0,0-3,3s0,0,0,0A23.12,23.12,0,0,1,23,28,16.41,16.41,0,0,1,28.07,23l0,0,.55-.34a3.65,3.65,0,0,1,.34-.18l.57-.3c.31-.16.64-.31,1-.45l.53-.2c.22-.09.45-.16.67-.23s.39-.14.59-.19a17.07,17.07,0,0,1,4.37-.6h.05V16.31A16.33,16.33,0,0,1,20.43,0H16.31A20.25,20.25,0,0,0,18.64,9.46Zm-10,4.35h0l0,0A16,16,0,0,1,.05,16.31H0v4.13A16.32,16.32,0,0,1,16.31,36.75h4.12v-.24a20,20,0,0,0-2.06-8.7,20.62,20.62,0,0,0-1.55-2.65l-.44-.61c-.2-.26-.4-.52-.61-.77s-.42-.5-.64-.74-.44-.48-.67-.71l-.71-.68-.82-.7c-.25-.21-.52-.42-.78-.61L11.63,20a.34.34,0,0,0-.11-.07c-.21-.15-.44-.3-.66-.44l-.59-.36a14.26,14.26,0,0,0-1.33-.72,20.26,20.26,0,0,0,3.89-2.49l0,0a19.86,19.86,0,0,0,3-3A24.22,24.22,0,0,1,13.78,8.7,16.55,16.55,0,0,1,8.69,13.81Z"/></g></g></svg>