<svg width="32" height="32" viewBox="0 0 32 32" fill="none" xmlns="http://www.w3.org/2000/svg">
<path fill-rule="evenodd" clip-rule="evenodd" d="M9.59999 2.13333C9.01089 2.13333 8.53333 2.6109 8.53333 3.2C8.53333 3.7891 9.01089 4.26666 9.59999 4.26666C11.5672 4.26666 12.8851 4.75848 13.6976 5.46942C14.4914 6.16403 14.9333 7.18135 14.9333 8.53333V14.9333H12.2667C11.6776 14.9333 11.2 15.4109 11.2 16C11.2 16.5891 11.6776 17.0667 12.2667 17.0667H14.9333V23.4667C14.9333 24.8186 14.4914 25.8359 13.6976 26.5306C12.8851 27.2416 11.5672 27.7333 9.59999 27.7333C9.01089 27.7333 8.53333 28.211 8.53333 28.8C8.53333 29.389 9.01089 29.8667 9.59999 29.8667C11.8994 29.8667 13.7815 29.2917 15.1024 28.1361C15.4489 27.833 15.7476 27.4978 16 27.1356C16.2524 27.4978 16.5511 27.833 16.8976 28.1361C18.2184 29.2917 20.1006 29.8667 22.4 29.8667C22.989 29.8667 23.4667 29.389 23.4667 28.8C23.4667 28.211 22.989 27.7333 22.4 27.7333C20.4327 27.7333 19.1149 27.2416 18.3024 26.5306C17.5086 25.8359 17.0667 24.8186 17.0667 23.4667V17.0667H19.7333C20.3224 17.0667 20.8 16.5891 20.8 16C20.8 15.4109 20.3224 14.9333 19.7333 14.9333H17.0667V8.53333C17.0667 7.18135 17.5086 6.16403 18.3024 5.46942C19.1149 4.75848 20.4327 4.26666 22.4 4.26666C22.989 4.26666 23.4667 3.7891 23.4667 3.2C23.4667 2.6109 22.989 2.13333 22.4 2.13333C20.1006 2.13333 18.2184 2.70818 16.8976 3.86391C16.5511 4.1671 16.2524 4.50225 16 4.86449C15.7476 4.50225 15.4489 4.1671 15.1024 3.86391C13.7815 2.70818 11.8994 2.13333 9.59999 2.13333Z" fill="black"/>
</svg>
